<svg width="158" height="151" viewBox="0 0 158 151" fill="none" xmlns="http://www.w3.org/2000/svg">
<path d="M58.9775 0C60.1094 0.0278904 61.2337 0.0864826 62.3496 0.174805V122.655C61.2337 122.744 60.1095 122.802 58.9775 122.83V0ZM54.9775 122.802C53.8453 122.757 52.7211 122.681 51.6055 122.576V0.253906C52.7211 0.148892 53.8454 0.0728626 54.9775 0.0283203V122.802ZM66.3496 0.623047C67.4839 0.787929 68.6083 0.983 69.7217 1.20898V121.621C68.6084 121.847 67.4839 122.041 66.3496 122.206V0.623047ZM47.6055 122.066C46.4708 121.884 45.3464 121.671 44.2334 121.428V1.40234C45.3464 1.15863 46.4708 0.946142 47.6055 0.763672V122.066ZM73.7217 2.16309C74.8595 2.47513 75.9843 2.81855 77.0947 3.19336V119.637C75.9843 120.012 74.8595 120.355 73.7217 120.667V2.16309ZM40.2334 120.408C39.0954 120.077 37.971 119.714 36.8613 119.319V3.51074C37.971 3.11644 39.0954 2.75315 40.2334 2.42188V120.408ZM81.0947 4.70312C82.2365 5.18003 83.3611 5.68979 84.4668 6.23242V116.598C83.3611 117.14 82.2366 117.65 81.0947 118.127V4.70312ZM32.8613 117.737C31.7189 117.238 30.5942 116.706 29.4893 116.141V6.68945C30.5943 6.12402 31.7188 5.591 32.8613 5.0918V117.737ZM88.4668 8.38281C89.6151 9.05618 90.7398 9.7655 91.8389 10.5098V112.32C90.7399 113.064 89.615 113.773 88.4668 114.446V8.38281ZM25.4893 113.9C24.3394 113.199 23.2147 112.461 22.1162 111.688V11.1426C23.2147 10.3694 24.3394 9.63104 25.4893 8.92969V113.9ZM95.8389 13.4609C96.9981 14.3905 98.1228 15.3614 99.2109 16.3711V106.459C98.1228 107.469 96.9981 108.44 95.8389 109.369V13.4609ZM18.1162 108.62C16.9551 107.652 15.8304 106.642 14.7441 105.592V17.2383C15.8304 16.1884 16.9551 15.1781 18.1162 14.21V108.62ZM103.211 20.4424C104.392 21.7612 105.518 23.131 106.583 24.5488V98.2812C105.518 99.6991 104.392 101.069 103.211 102.388V20.4424ZM10.7441 101.342C9.55884 99.957 8.43318 98.5196 7.37305 97.0322V25.7979C8.43319 24.3105 9.55884 22.8731 10.7441 21.4883V101.342ZM110.583 30.582C111.838 32.741 112.966 34.9833 113.955 37.2988V85.5312C112.966 87.8468 111.838 90.0891 110.583 92.248V30.582ZM3.37305 90.6201C2.09397 88.2573 0.965496 85.8012 0 83.2646V39.5654C0.965526 37.0289 2.09394 34.5727 3.37305 32.21V90.6201ZM117.955 50.7998C118.556 54.2481 118.87 57.7949 118.87 61.415C118.87 65.0347 118.556 68.5815 117.955 72.0293V50.7998Z" fill="#CA0F3E"/>
<circle cx="99.5" cy="92.5" r="57.5" stroke="#A00F33" stroke-width="2"/>
</svg>
