<svg width="683" height="644" viewBox="0 0 683 644" fill="none" xmlns="http://www.w3.org/2000/svg">
<path d="M-150.814 148.294C-88.5826 178.103 22.8236 259.661 -29.4063 347.42C-94.6936 457.119 -143.444 504.327 -20.8286 611.783C101.787 719.238 259.232 806.966 199.368 978.653" stroke="white"/>
<path d="M-19.2419 49.8311C47.9694 64.8902 173.086 120.879 135.86 224.36C89.3271 353.713 82.6838 330.515 129.258 396.357C175.832 462.198 334.282 480.277 305.906 598.103C277.53 715.929 316.395 770.733 373.311 845.252C430.227 919.771 389.736 947.802 342.482 987.782" stroke="white"/>
<path d="M-144.4 143.428C-111.565 158.34 -64.2651 187.522 -38.3218 225.864C-12.8216 265.439 0.951627 304.648 -21.7019 349.573C-50.5733 404.946 -70.18 443.166 -76.3137 485.868C-82.4474 528.571 -63.0098 568.005 -1.91115 622.723C117.576 728.61 265.595 813.495 206.331 978.911" stroke="white"/>
<path d="M-138.057 138.646C-103.503 153.565 -52.3123 184.088 -29.5274 225.687C-7.62892 269.75 5.12352 305.839 -14.0686 351.81C-39.1677 407.706 -49.8716 444.919 -57.1174 491.378C-64.3633 537.837 -43.9542 578.04 16.9352 633.748C133.294 738.066 271.887 820.109 213.224 979.252" stroke="white"/>
<path d="M-131.749 133.906C-95.4763 148.833 -40.3944 180.695 -20.768 225.552C-2.47112 274.104 9.26049 307.072 -6.47027 354.089C-27.7971 410.509 -29.5981 446.715 -37.9561 496.93C-46.3141 547.145 -24.9336 588.116 35.7467 644.814C148.977 747.564 278.145 826.764 220.082 979.636" stroke="white"/>
<path d="M-125.461 129.191C-87.4696 144.125 -28.497 177.328 -12.029 225.441C2.66623 278.482 13.377 308.331 1.10765 356.393C-16.4469 413.336 -9.34515 448.535 -18.8152 502.506C-28.2853 556.477 -5.93347 598.217 54.5377 655.905C164.639 757.087 284.382 833.444 226.92 980.044" stroke="white"/>
<path d="M-119.186 124.491C-79.4759 139.432 -16.6124 173.976 -3.30297 225.346C7.79066 282.876 17.4806 309.604 8.67265 358.712C-5.10959 416.179 10.8949 450.37 0.312737 508.098C-10.2695 565.825 13.0538 608.334 73.3158 667.012C180.289 766.625 290.606 840.139 233.744 980.468" stroke="white"/>
<path d="M-112.92 119.801C-71.4909 134.75 -4.73662 170.634 5.41438 225.261C12.9064 287.28 21.5755 310.887 16.2289 361.042C6.21898 419.032 31.1263 452.216 19.432 513.7C7.73768 575.183 32.0323 618.46 92.0852 678.128C195.929 776.173 296.821 846.845 240.56 980.901" stroke="white"/>
<path d="M-106.66 115.119C-63.5125 130.075 7.13255 167.299 14.1251 225.184C18.0154 291.691 25.6638 312.178 23.7786 363.378C17.5409 421.892 51.351 454.069 38.5446 519.309C25.7382 584.549 51.0042 628.594 110.848 689.252C211.564 785.729 303.03 853.558 247.369 981.343" stroke="white"/>
<path d="M-100.405 110.442C-55.5381 125.405 18.9977 163.97 22.8318 225.111C23.1205 296.108 29.748 313.475 31.3242 365.72C28.8588 424.757 71.5717 455.928 57.6532 524.924C43.7346 593.92 69.972 638.733 129.607 700.382C227.194 795.29 309.234 860.276 254.174 981.789" stroke="white"/>
<path d="M-94.1526 105.769C-47.5672 120.74 30.8594 160.645 31.535 225.043C28.2221 300.529 33.8288 314.775 38.8664 368.067C40.1733 427.627 91.789 457.79 76.7583 530.542C61.7277 603.295 88.9365 648.877 148.362 711.515C242.821 804.855 315.436 866.998 260.976 982.24" stroke="white"/>
<path d="M-87.9036 101.1C-39.5994 116.078 42.718 157.323 40.2352 224.978C33.3206 304.953 37.9065 316.079 46.4055 370.416C51.4846 430.5 112.003 459.656 95.8603 536.164C79.7176 612.673 107.898 659.024 167.114 722.652C258.444 814.423 321.634 873.724 267.775 982.693" stroke="white"/>
<path d="M-81.6558 96.4329C-31.6327 111.418 54.5755 154.004 48.9342 224.916C38.418 309.379 41.983 317.385 53.9434 372.768C62.7949 433.375 132.216 461.525 114.961 541.789C97.7064 622.054 126.858 669.173 185.865 733.791C274.067 823.994 327.831 880.452 274.572 983.15" stroke="white"/>
<path d="M-75.4106 91.7676C-23.6687 106.76 66.4303 150.686 57.6305 224.855C43.5127 313.807 46.0569 318.693 61.4787 375.122C74.1024 436.253 152.427 463.395 134.06 547.415C115.693 631.436 145.815 679.324 204.614 744.932C289.686 833.567 334.025 887.182 281.367 983.608" stroke="white"/>
<path d="M-69.1663 87.1042C-15.7056 102.104 78.2843 147.37 66.326 224.796C48.6066 318.238 50.1299 320.003 69.0131 377.478C85.4091 439.132 172.636 465.267 153.157 553.044C133.678 640.82 164.772 689.477 223.361 756.075C305.305 843.141 340.218 893.914 288.161 984.068" stroke="white"/>
<path d="M-62.9231 82.4421C-7.74356 97.4497 90.137 144.056 75.0203 224.739C53.6993 322.669 54.2018 321.314 76.5464 379.835C96.7147 442.012 192.844 467.14 172.253 558.673C151.662 650.206 183.728 699.631 242.107 767.219C320.923 852.717 346.411 900.647 294.954 984.529" stroke="white"/>
<path d="M-56.6809 77.7809C0.217495 92.7959 101.989 140.743 83.7137 224.683C58.791 327.101 58.2727 322.626 84.0787 382.192C108.019 444.893 213.052 469.014 191.348 564.304C169.645 659.593 202.682 709.786 260.853 778.364C336.54 862.294 352.602 907.381 301.746 984.991" stroke="white"/>
<path d="M-50.4399 73.1209C8.17725 88.1432 113.839 137.43 92.4058 224.627C63.8815 331.535 62.3423 323.939 91.6097 384.551C119.323 447.776 233.258 470.89 210.442 569.935C187.627 668.981 221.635 719.942 279.597 789.511C352.156 871.872 358.792 914.116 308.536 985.455" stroke="white"/>
<path d="M-44.1992 68.4615C16.1368 83.4912 125.69 134.119 101.098 224.572C68.9717 335.969 66.4118 325.253 99.1405 386.911C130.626 450.659 253.464 472.766 229.536 575.567C205.609 678.369 240.588 730.099 298.341 800.658C367.771 881.45 364.982 920.852 315.327 985.919" stroke="white"/>
<path d="M-37.9591 63.8033C24.0958 78.8403 137.54 130.808 109.789 224.519C74.0614 340.404 70.4806 326.568 106.671 389.272C141.928 453.543 273.669 474.643 248.629 581.201C223.59 687.758 259.541 740.257 317.084 811.806C383.386 891.03 371.171 927.589 322.116 986.384" stroke="white"/>
<path d="M-31.7194 59.1455C32.0542 74.1899 149.389 127.498 118.48 224.466C79.1505 344.84 74.5489 327.883 114.2 391.633C153.23 456.427 293.874 476.52 267.722 586.834C241.57 697.148 278.493 750.415 335.827 822.954C399 900.61 377.36 934.326 328.906 986.849" stroke="white"/>
<path d="M-25.4807 54.4881C40.0118 69.5399 161.237 124.188 127.17 224.413C84.2388 349.276 78.6163 329.199 121.729 393.995C164.531 459.313 314.078 478.398 286.814 592.469C259.55 706.539 297.444 760.574 354.569 834.103C414.613 910.191 383.548 941.064 335.694 987.315" stroke="white"/>
</svg>
