<svg width="32" height="12" viewBox="0 0 32 12" fill="none" xmlns="http://www.w3.org/2000/svg">
<g clip-path="url(#clip0_402_3195)">
<path d="M16.9946 0L15.0704 4.23131L13.1463 0H11.7129V9.59661H13.1463V3.45275L14.5926 6.60085H15.5095L16.9558 3.45275V9.59661H18.3892V0H16.9946ZM24.2133 0L21.3594 6.11001V0H19.8743V9.59661H21.2302L24.0842 3.4866V9.59661H25.5692V0H24.2133ZM26.4086 0V1.69252H28.4748V9.57969H29.9599V1.69252H32.0131V0H26.4086Z" fill="black"/>
<path d="M5.48828 0V1.69252H8.76835V3.97743H5.96609V5.58533H8.76835V8.15797L5.48828 9.71509V12L10.2534 9.59662V0H5.48828Z" fill="black"/>
<path d="M0 0V9.59662L4.75222 12V0H0Z" fill="black"/>
</g>
<defs>
<clipPath id="clip0_402_3195">
<rect width="32" height="12" fill="white"/>
</clipPath>
</defs>
</svg>
