<svg width="1366" height="918" viewBox="0 0 1366 918" fill="none" xmlns="http://www.w3.org/2000/svg">
<path d="M783 686C830.435 826.67 580.5 1021 566.5 819C552.5 617 376.5 630.5 263 707C172.2 768.2 85.6482 632 50 555C12.5 474 -52.2 347.1 -97 439.5M783 686C739.5 557 800.5 774.5 783 686ZM783 686C765.5 597.5 818 417.5 980 435C1142 452.5 1187.5 366.5 1145.5 335.5C1103.5 304.5 965.5 370.5 960.5 295.5C955.5 220.5 978.5 70.5 1137 116C1295.5 161.5 1293 116 1316.5 72.5C1330 45.1667 1375.5 -6.69999 1449.5 4.50001" stroke="black" stroke-width="4"/>
<circle cx="12" cy="12" r="12" transform="matrix(-1 0 0 1 196.5 706)" fill="#A00F33"/>
<circle cx="12" cy="12" r="12" transform="matrix(-1 0 0 1 643.5 894)" fill="#A00F33"/>
<circle cx="12" cy="12" r="12" transform="matrix(-1 0 0 1 945.5 423)" fill="#A00F33"/>
<circle cx="12" cy="12" r="12" transform="matrix(-1 0 0 1 38 492)" fill="#A00F33"/>
<circle cx="12" cy="12" r="12" transform="matrix(-1 0 0 1 1160.5 326)" fill="#A00F33"/>
<circle cx="12" cy="12" r="12" transform="matrix(-1 0 0 1 1084.5 94)" fill="#A00F33"/>
<circle cx="12" cy="12" r="12" transform="matrix(-1 0 0 1 1330 57)" fill="#A00F33"/>
<path d="M1093.81 712.692C1124.57 712.692 1149.5 737.627 1149.5 768.385C1149.5 799.143 1124.57 824.077 1093.81 824.077C1063.05 824.077 1038.12 799.143 1038.12 768.385C1038.12 737.627 1063.05 712.692 1093.81 712.692Z" stroke="black" stroke-width="4"/>
<circle cx="1023.04" cy="768.384" r="64.6154" fill="#A00F33"/>
<path d="M993.038 685C1031.44 685 1062.58 716.133 1062.58 754.538C1062.58 792.943 1031.44 824.077 993.038 824.077C954.633 824.077 923.5 792.943 923.5 754.538C923.5 716.133 954.633 685 993.038 685Z" stroke="black" stroke-width="4"/>
<path d="M1069.96 718C1066.5 719.282 1059.27 723.231 1058.04 728.769" stroke="black" stroke-width="4"/>
<path d="M1066.5 817C1063.1 815.113 1050.59 802.736 1049.5 797" stroke="black" stroke-width="4"/>
<circle cx="237.615" cy="246.615" r="64.6154" fill="#A00F33"/>
<circle cx="181.358" cy="247.358" r="2.35821" fill="#171F29"/>
<circle cx="206.119" cy="247.358" r="2.35821" fill="#171F29"/>
<circle cx="230.881" cy="247.358" r="2.35821" fill="#171F29"/>
<circle cx="255.641" cy="247.358" r="2.35821" fill="#171F29"/>
<circle cx="280.358" cy="247.358" r="2.35821" fill="#171F29"/>
<circle cx="305.119" cy="247.358" r="2.35821" fill="#171F29"/>
<circle cx="329.881" cy="247.358" r="2.35821" fill="#171F29"/>
<circle cx="354.641" cy="247.358" r="2.35821" fill="#171F29"/>
<circle cx="92.3582" cy="231.358" r="2.35821" fill="white"/>
<circle cx="117.119" cy="231.358" r="2.35821" fill="white"/>
<circle cx="141.881" cy="231.358" r="2.35821" fill="white"/>
<circle cx="166.641" cy="231.358" r="2.35821" fill="white"/>
<circle cx="191.358" cy="231.358" r="2.35821" fill="white"/>
<circle cx="216.119" cy="231.358" r="2.35821" fill="white"/>
<circle cx="240.881" cy="231.358" r="2.35821" fill="white"/>
<circle cx="265.641" cy="231.358" r="2.35821" fill="white"/>
</svg>
