<svg width="1366" height="25" viewBox="0 0 1366 25" fill="none" xmlns="http://www.w3.org/2000/svg">
<line y1="-1.5" x2="45.8886" y2="-1.5" transform="matrix(0.855333 0.518079 -0.981491 0.191506 -11 1.22607)" stroke="#171F29" stroke-width="3"/>
<line y1="-1.5" x2="45.8886" y2="-1.5" transform="matrix(0.855333 0.518079 -0.981491 0.191506 28.25 1.22607)" stroke="#171F29" stroke-width="3"/>
<line y1="-1.5" x2="45.8886" y2="-1.5" transform="matrix(0.855333 0.518079 -0.981491 0.191506 67.5 1.22607)" stroke="#171F29" stroke-width="3"/>
<line y1="-1.5" x2="45.8886" y2="-1.5" transform="matrix(0.855333 0.518079 -0.981491 0.191506 106.75 1.22607)" stroke="#171F29" stroke-width="3"/>
<line y1="-1.5" x2="45.8886" y2="-1.5" transform="matrix(0.855333 0.518079 -0.981491 0.191506 146 1)" stroke="#171F29" stroke-width="3"/>
<line y1="-1.5" x2="45.8886" y2="-1.5" transform="matrix(0.855333 0.518079 -0.981491 0.191506 185.25 1)" stroke="#171F29" stroke-width="3"/>
<line y1="-1.5" x2="45.8886" y2="-1.5" transform="matrix(0.855333 0.518079 -0.981491 0.191506 224.5 1)" stroke="#171F29" stroke-width="3"/>
<line y1="-1.5" x2="45.8886" y2="-1.5" transform="matrix(0.855333 0.518079 -0.981491 0.191506 263.75 1)" stroke="#171F29" stroke-width="3"/>
<line y1="-1.5" x2="45.8886" y2="-1.5" transform="matrix(0.855333 0.518079 -0.981491 0.191506 303 1.22607)" stroke="#171F29" stroke-width="3"/>
<line y1="-1.5" x2="45.8886" y2="-1.5" transform="matrix(0.855333 0.518079 -0.981491 0.191506 342.25 1.22607)" stroke="#171F29" stroke-width="3"/>
<line y1="-1.5" x2="45.8886" y2="-1.5" transform="matrix(0.855333 0.518079 -0.981491 0.191506 381.5 1.22607)" stroke="#171F29" stroke-width="3"/>
<line y1="-1.5" x2="45.8886" y2="-1.5" transform="matrix(0.855333 0.518079 -0.981491 0.191506 420.75 1.22607)" stroke="#171F29" stroke-width="3"/>
<line y1="-1.5" x2="45.8886" y2="-1.5" transform="matrix(0.855333 0.518079 -0.981491 0.191506 460 1)" stroke="#171F29" stroke-width="3"/>
<line y1="-1.5" x2="45.8886" y2="-1.5" transform="matrix(0.855333 0.518079 -0.981491 0.191506 499.25 1)" stroke="#171F29" stroke-width="3"/>
<line y1="-1.5" x2="45.8886" y2="-1.5" transform="matrix(0.855333 0.518079 -0.981491 0.191506 538.5 1)" stroke="#171F29" stroke-width="3"/>
<line y1="-1.5" x2="45.8886" y2="-1.5" transform="matrix(0.855333 0.518079 -0.981491 0.191506 577.75 1)" stroke="#171F29" stroke-width="3"/>
<line y1="-1.5" x2="45.8886" y2="-1.5" transform="matrix(0.855333 0.518079 -0.981491 0.191506 617 1.22607)" stroke="#171F29" stroke-width="3"/>
<line y1="-1.5" x2="45.8886" y2="-1.5" transform="matrix(0.855333 0.518079 -0.981491 0.191506 656.25 1.22607)" stroke="#171F29" stroke-width="3"/>
<line y1="-1.5" x2="45.8886" y2="-1.5" transform="matrix(0.855333 0.518079 -0.981491 0.191506 695.5 1.22607)" stroke="#171F29" stroke-width="3"/>
<line y1="-1.5" x2="45.8886" y2="-1.5" transform="matrix(0.855333 0.518079 -0.981491 0.191506 734.75 1.22607)" stroke="#171F29" stroke-width="3"/>
<line y1="-1.5" x2="45.8886" y2="-1.5" transform="matrix(0.855333 0.518079 -0.981491 0.191506 774 1)" stroke="#171F29" stroke-width="3"/>
<line y1="-1.5" x2="45.8886" y2="-1.5" transform="matrix(0.855333 0.518079 -0.981491 0.191506 813.25 1)" stroke="#171F29" stroke-width="3"/>
<line y1="-1.5" x2="45.8886" y2="-1.5" transform="matrix(0.855333 0.518079 -0.981491 0.191506 852.5 1)" stroke="#171F29" stroke-width="3"/>
<line y1="-1.5" x2="45.8886" y2="-1.5" transform="matrix(0.855333 0.518079 -0.981491 0.191506 891.75 1)" stroke="#171F29" stroke-width="3"/>
<line y1="-1.5" x2="45.8886" y2="-1.5" transform="matrix(0.855333 0.518079 -0.981491 0.191506 931 1.22607)" stroke="#171F29" stroke-width="3"/>
<line y1="-1.5" x2="45.8886" y2="-1.5" transform="matrix(0.855333 0.518079 -0.981491 0.191506 970.25 1.22607)" stroke="#171F29" stroke-width="3"/>
<line y1="-1.5" x2="45.8886" y2="-1.5" transform="matrix(0.855333 0.518079 -0.981491 0.191506 1009.5 1.22607)" stroke="#171F29" stroke-width="3"/>
<line y1="-1.5" x2="45.8886" y2="-1.5" transform="matrix(0.855333 0.518079 -0.981491 0.191506 1048.75 1.22607)" stroke="#171F29" stroke-width="3"/>
<line y1="-1.5" x2="45.8886" y2="-1.5" transform="matrix(0.855333 0.518079 -0.981491 0.191506 1088 1)" stroke="#171F29" stroke-width="3"/>
<line y1="-1.5" x2="45.8886" y2="-1.5" transform="matrix(0.855333 0.518079 -0.981491 0.191506 1127.25 1)" stroke="#171F29" stroke-width="3"/>
<line y1="-1.5" x2="45.8886" y2="-1.5" transform="matrix(0.855333 0.518079 -0.981491 0.191506 1166.5 1)" stroke="#171F29" stroke-width="3"/>
<line y1="-1.5" x2="45.8886" y2="-1.5" transform="matrix(0.855333 0.518079 -0.981491 0.191506 1205.75 1)" stroke="#171F29" stroke-width="3"/>
<line y1="-1.5" x2="45.8886" y2="-1.5" transform="matrix(0.855333 0.518079 -0.981491 0.191506 1245 1.22607)" stroke="#171F29" stroke-width="3"/>
<line y1="-1.5" x2="45.8886" y2="-1.5" transform="matrix(0.855333 0.518079 -0.981491 0.191506 1284.25 1.22607)" stroke="#171F29" stroke-width="3"/>
<line y1="-1.5" x2="45.8886" y2="-1.5" transform="matrix(0.855333 0.518079 -0.981491 0.191506 1323.5 1.22607)" stroke="#171F29" stroke-width="3"/>
<line y1="-1.5" x2="45.8886" y2="-1.5" transform="matrix(0.855333 0.518079 -0.981491 0.191506 1362.75 1.22607)" stroke="#171F29" stroke-width="3"/>
</svg>
