<svg width="913" height="682" viewBox="0 0 913 682" fill="none" xmlns="http://www.w3.org/2000/svg">
<g filter="url(#filter0_d_287_5)">
<path d="M37.5857 57.4417V222.942C37.5856 222.953 37.5855 222.964 37.5854 222.975C37.5735 225.648 39.5251 228.004 45.4999 229C42.5 231 39 231.5 37.4999 235.5C37 233.333 34.5 230.5 30 229C32.5182 228.131 37.5444 225.715 37.5854 222.975C37.5855 222.964 37.5856 222.953 37.5857 222.942V57.4417C37.5857 41.9417 35.0857 12.2417 57.0857 11.4417C79.0857 10.6417 184.919 11.1084 235.086 11.4417C235.223 11.4521 235.358 11.4644 235.49 11.4788C238.227 11.6206 243 9.75061 243 1C243.638 4.94981 246.534 12.3235 253.091 11.5912C253.412 11.5191 253.717 11.4689 254 11.4417C253.689 11.5087 253.387 11.5582 253.091 11.5912C249.246 12.4539 243 16.4628 243 22C242.509 18.5648 242.5 12.2398 235.49 11.4788C235.35 11.4715 235.215 11.459 235.086 11.4417C184.919 11.1084 79.0857 10.6417 57.0857 11.4417C35.0857 12.2417 37.5857 41.9417 37.5857 57.4417Z" fill="#A00F33"/>
<path d="M37.5857 222.942V57.4417C37.5857 41.9417 35.0857 12.2417 57.0857 11.4417C79.0857 10.6417 184.919 11.1084 235.086 11.4417M37.5857 222.942C37.5571 225.628 39.5 228 45.4999 229C42.5 231 39 231.5 37.4999 235.5C37 233.333 34.5 230.5 30 229C32.5286 228.128 37.5857 225.695 37.5857 222.942ZM235.086 11.4417C237.724 11.7945 243 10.2 243 1C243.667 5.12781 246.8 12.9951 254 11.4417C250.333 11.7945 243 16 243 22C242.5 18.5 242.5 12 235.086 11.4417Z" stroke="white" stroke-width="2"/>
</g>
<path d="M901.414 547.058V381.558C901.414 381.547 901.415 381.536 901.415 381.525C901.427 378.852 899.475 376.496 893.5 375.5C896.5 373.5 900 373 901.5 369C902 371.167 904.5 374 909 375.5C906.482 376.369 901.456 378.785 901.415 381.525C901.415 381.536 901.414 381.547 901.414 381.558V547.058C901.414 562.558 903.914 592.258 881.914 593.058C859.914 593.858 754.081 593.392 703.914 593.058C703.777 593.048 703.642 593.036 703.51 593.021C700.773 592.879 696 594.749 696 603.5C695.362 599.55 692.466 592.176 685.909 592.909C685.588 592.981 685.283 593.031 685 593.058C685.311 592.991 685.613 592.942 685.909 592.909C689.754 592.046 696 588.037 696 582.5C696.491 585.935 696.5 592.26 703.51 593.021C703.65 593.028 703.785 593.041 703.914 593.058C754.081 593.392 859.914 593.858 881.914 593.058C903.914 592.258 901.414 562.558 901.414 547.058Z" fill="#A00F33"/>
<path d="M901.414 381.558V547.058C901.414 562.558 903.914 592.258 881.914 593.058C859.914 593.858 754.081 593.392 703.914 593.058M901.414 381.558C901.443 378.872 899.5 376.5 893.5 375.5C896.5 373.5 900 373 901.5 369C902 371.167 904.5 374 909 375.5C906.471 376.372 901.414 378.805 901.414 381.558ZM703.914 593.058C701.276 592.706 696 594.3 696 603.5C695.333 599.372 692.2 591.505 685 593.058C688.667 592.706 696 588.5 696 582.5C696.5 586 696.5 592.5 703.914 593.058Z" stroke="white" stroke-width="2"/>
<rect x="55" y="26" width="828" height="552" rx="60" fill="#D9D9D9"/>
<path d="M373.977 329V302.1H400.727V329H392.927V306.75L394.677 308.5H379.977L381.727 306.75V329H373.977ZM420.805 329.4C417.938 329.4 415.388 328.8 413.155 327.6C410.955 326.4 409.205 324.767 407.905 322.7C406.638 320.6 406.005 318.217 406.005 315.55C406.005 312.85 406.638 310.467 407.905 308.4C409.205 306.3 410.955 304.667 413.155 303.5C415.388 302.3 417.938 301.7 420.805 301.7C423.638 301.7 426.172 302.3 428.405 303.5C430.638 304.667 432.388 306.283 433.655 308.35C434.922 310.417 435.555 312.817 435.555 315.55C435.555 318.217 434.922 320.6 433.655 322.7C432.388 324.767 430.638 326.4 428.405 327.6C426.172 328.8 423.638 329.4 420.805 329.4ZM420.805 323C422.105 323 423.272 322.7 424.305 322.1C425.338 321.5 426.155 320.65 426.755 319.55C427.355 318.417 427.655 317.083 427.655 315.55C427.655 313.983 427.355 312.65 426.755 311.55C426.155 310.45 425.338 309.6 424.305 309C423.272 308.4 422.105 308.1 420.805 308.1C419.505 308.1 418.338 308.4 417.305 309C416.272 309.6 415.438 310.45 414.805 311.55C414.205 312.65 413.905 313.983 413.905 315.55C413.905 317.083 414.205 318.417 414.805 319.55C415.438 320.65 416.272 321.5 417.305 322.1C418.338 322.7 419.505 323 420.805 323ZM459.97 329L450.97 316.25L457.32 312.5L469.17 329H459.97ZM440.92 329V302.1H448.72V329H440.92ZM446.42 318.8V312.55H455.82V318.8H446.42ZM458.07 316.45L450.77 315.65L460.22 302.1H468.52L458.07 316.45ZM488.612 329V323.75L488.112 322.6V313.2C488.112 311.533 487.595 310.233 486.562 309.3C485.562 308.367 484.012 307.9 481.912 307.9C480.478 307.9 479.062 308.133 477.662 308.6C476.295 309.033 475.128 309.633 474.162 310.4L471.362 304.95C472.828 303.917 474.595 303.117 476.662 302.55C478.728 301.983 480.828 301.7 482.962 301.7C487.062 301.7 490.245 302.667 492.512 304.6C494.778 306.533 495.912 309.55 495.912 313.65V329H488.612ZM480.412 329.4C478.312 329.4 476.512 329.05 475.012 328.35C473.512 327.617 472.362 326.633 471.562 325.4C470.762 324.167 470.362 322.783 470.362 321.25C470.362 319.65 470.745 318.25 471.512 317.05C472.312 315.85 473.562 314.917 475.262 314.25C476.962 313.55 479.178 313.2 481.912 313.2H489.062V317.75H482.762C480.928 317.75 479.662 318.05 478.962 318.65C478.295 319.25 477.962 320 477.962 320.9C477.962 321.9 478.345 322.7 479.112 323.3C479.912 323.867 480.995 324.15 482.362 324.15C483.662 324.15 484.828 323.85 485.862 323.25C486.895 322.617 487.645 321.7 488.112 320.5L489.312 324.1C488.745 325.833 487.712 327.15 486.212 328.05C484.712 328.95 482.778 329.4 480.412 329.4ZM516.848 329V302.1H524.598V312.6H536.298V302.1H544.098V329H536.298V318.95H524.598V329H516.848ZM564.714 329.4C561.648 329.4 558.948 328.8 556.614 327.6C554.314 326.4 552.531 324.767 551.264 322.7C549.998 320.6 549.364 318.217 549.364 315.55C549.364 312.85 549.981 310.467 551.214 308.4C552.481 306.3 554.198 304.667 556.364 303.5C558.531 302.3 560.981 301.7 563.714 301.7C566.348 301.7 568.714 302.267 570.814 303.4C572.948 304.5 574.631 306.1 575.864 308.2C577.098 310.267 577.714 312.75 577.714 315.65C577.714 315.95 577.698 316.3 577.664 316.7C577.631 317.067 577.598 317.417 577.564 317.75H555.714V313.2H573.464L570.464 314.55C570.464 313.15 570.181 311.933 569.614 310.9C569.048 309.867 568.264 309.067 567.264 308.5C566.264 307.9 565.098 307.6 563.764 307.6C562.431 307.6 561.248 307.9 560.214 308.5C559.214 309.067 558.431 309.883 557.864 310.95C557.298 311.983 557.014 313.217 557.014 314.65V315.85C557.014 317.317 557.331 318.617 557.964 319.75C558.631 320.85 559.548 321.7 560.714 322.3C561.914 322.867 563.314 323.15 564.914 323.15C566.348 323.15 567.598 322.933 568.664 322.5C569.764 322.067 570.764 321.417 571.664 320.55L575.814 325.05C574.581 326.45 573.031 327.533 571.164 328.3C569.298 329.033 567.148 329.4 564.714 329.4ZM588.516 329V306.7L590.266 308.5H579.416V302.1H605.366V308.5H594.516L596.266 306.7V329H588.516Z" fill="black"/>
<path d="M122.292 620.5H9.70801L66 522.999L122.292 620.5Z" fill="white" stroke="#CA0F3E"/>
<path d="M163.292 648.5H50.708L107 550.999L163.292 648.5Z" stroke="#CA0F3E"/>
<defs>
<filter id="filter0_d_287_5" x="22.8867" y="0.840332" width="235.324" height="246.117" filterUnits="userSpaceOnUse" color-interpolation-filters="sRGB">
<feFlood flood-opacity="0" result="BackgroundImageFix"/>
<feColorMatrix in="SourceAlpha" type="matrix" values="0 0 0 0 0 0 0 0 0 0 0 0 0 0 0 0 0 0 127 0" result="hardAlpha"/>
<feOffset dy="4"/>
<feGaussianBlur stdDeviation="2"/>
<feComposite in2="hardAlpha" operator="out"/>
<feColorMatrix type="matrix" values="0 0 0 0 0 0 0 0 0 0 0 0 0 0 0 0 0 0 0.25 0"/>
<feBlend mode="normal" in2="BackgroundImageFix" result="effect1_dropShadow_287_5"/>
<feBlend mode="normal" in="SourceGraphic" in2="effect1_dropShadow_287_5" result="shape"/>
</filter>
</defs>
</svg>
