<svg width="237" height="247" viewBox="0 0 237 247" fill="none" xmlns="http://www.w3.org/2000/svg">
<g filter="url(#filter0_d_25_357)">
<path d="M221.414 182.058V16.5583C221.414 16.547 221.415 16.5358 221.415 16.5245C221.427 13.8523 219.475 11.4958 213.5 10.5C216.5 8.5 220 8 221.5 4C222 6.16667 224.5 9 229 10.5C226.482 11.3686 221.456 13.785 221.415 16.5245C221.415 16.5358 221.414 16.547 221.414 16.5583V182.058C221.414 197.558 223.914 227.258 201.914 228.058C179.914 228.858 74.081 228.392 23.9143 228.058C23.777 228.048 23.6421 228.036 23.5098 228.021C20.7734 227.879 16.0001 229.749 16.0001 238.5C15.3621 234.55 12.4657 227.176 5.90897 227.909C5.58755 227.981 5.2829 228.031 5.00006 228.058C5.31055 227.991 5.61348 227.942 5.90897 227.909C9.75444 227.046 16.0001 223.037 16.0001 217.5C16.4908 220.935 16.4999 227.26 23.5098 228.021C23.6503 228.028 23.7855 228.041 23.9143 228.058C74.081 228.392 179.914 228.858 201.914 228.058C223.914 227.258 221.414 197.558 221.414 182.058Z" fill="#171F29"/>
<path d="M221.414 16.5583V182.058C221.414 197.558 223.914 227.258 201.914 228.058C179.914 228.858 74.081 228.392 23.9143 228.058M221.414 16.5583C221.443 13.8722 219.5 11.5 213.5 10.5C216.5 8.5 220 8 221.5 4C222 6.16667 224.5 9 229 10.5C226.471 11.3722 221.414 13.8049 221.414 16.5583ZM23.9143 228.058C21.2762 227.706 16.0001 229.3 16.0001 238.5C15.3334 234.372 12.2001 226.505 5.00006 228.058C8.66673 227.706 16.0001 223.5 16.0001 217.5C16.5001 221 16.5001 227.5 23.9143 228.058Z" stroke="white" stroke-width="2"/>
</g>
<defs>
<filter id="filter0_d_25_357" x="0.789062" y="0.542725" width="235.325" height="246.117" filterUnits="userSpaceOnUse" color-interpolation-filters="sRGB">
<feFlood flood-opacity="0" result="BackgroundImageFix"/>
<feColorMatrix in="SourceAlpha" type="matrix" values="0 0 0 0 0 0 0 0 0 0 0 0 0 0 0 0 0 0 127 0" result="hardAlpha"/>
<feOffset dy="4"/>
<feGaussianBlur stdDeviation="2"/>
<feComposite in2="hardAlpha" operator="out"/>
<feColorMatrix type="matrix" values="0 0 0 0 0 0 0 0 0 0 0 0 0 0 0 0 0 0 0.25 0"/>
<feBlend mode="normal" in2="BackgroundImageFix" result="effect1_dropShadow_25_357"/>
<feBlend mode="normal" in="SourceGraphic" in2="effect1_dropShadow_25_357" result="shape"/>
</filter>
</defs>
</svg>
