<svg width="236" height="247" viewBox="0 0 236 247" fill="none" xmlns="http://www.w3.org/2000/svg">
<g filter="url(#filter0_d_25_356)">
<path d="M15.0857 57.4417V222.942C15.0856 222.953 15.0855 222.964 15.0854 222.975C15.0735 225.648 17.0251 228.004 22.9999 229C20 231 16.5 231.5 14.9999 235.5C14.5 233.333 12 230.5 7.5 229C10.0182 228.131 15.0444 225.715 15.0854 222.975C15.0855 222.964 15.0856 222.953 15.0857 222.942V57.4417C15.0857 41.9417 12.5857 12.2417 34.5857 11.4417C56.5857 10.6417 162.419 11.1084 212.586 11.4417C212.723 11.4521 212.858 11.4644 212.99 11.4788C215.727 11.6206 220.5 9.75061 220.5 1C221.138 4.94981 224.034 12.3235 230.591 11.5912C230.912 11.5191 231.217 11.4689 231.5 11.4417C231.189 11.5087 230.887 11.5582 230.591 11.5912C226.746 12.4539 220.5 16.4628 220.5 22C220.009 18.5648 220 12.2398 212.99 11.4788C212.85 11.4715 212.715 11.459 212.586 11.4417C162.419 11.1084 56.5857 10.6417 34.5857 11.4417C12.5857 12.2417 15.0857 41.9417 15.0857 57.4417Z" fill="#A00F33"/>
<path d="M15.0857 222.942V57.4417C15.0857 41.9417 12.5857 12.2417 34.5857 11.4417C56.5857 10.6417 162.419 11.1084 212.586 11.4417M15.0857 222.942C15.0571 225.628 17 228 22.9999 229C20 231 16.5 231.5 14.9999 235.5C14.5 233.333 12 230.5 7.5 229C10.0286 228.128 15.0857 225.695 15.0857 222.942ZM212.586 11.4417C215.224 11.7945 220.5 10.2 220.5 1C221.167 5.12781 224.3 12.9951 231.5 11.4417C227.833 11.7945 220.5 16 220.5 22C220 18.5 220 12 212.586 11.4417Z" stroke="white" stroke-width="2"/>
</g>
<defs>
<filter id="filter0_d_25_356" x="0.38623" y="0.840576" width="235.325" height="246.117" filterUnits="userSpaceOnUse" color-interpolation-filters="sRGB">
<feFlood flood-opacity="0" result="BackgroundImageFix"/>
<feColorMatrix in="SourceAlpha" type="matrix" values="0 0 0 0 0 0 0 0 0 0 0 0 0 0 0 0 0 0 127 0" result="hardAlpha"/>
<feOffset dy="4"/>
<feGaussianBlur stdDeviation="2"/>
<feComposite in2="hardAlpha" operator="out"/>
<feColorMatrix type="matrix" values="0 0 0 0 0 0 0 0 0 0 0 0 0 0 0 0 0 0 0.25 0"/>
<feBlend mode="normal" in2="BackgroundImageFix" result="effect1_dropShadow_25_356"/>
<feBlend mode="normal" in="SourceGraphic" in2="effect1_dropShadow_25_356" result="shape"/>
</filter>
</defs>
</svg>
