<svg width="402" height="500" viewBox="0 0 402 500" fill="none" xmlns="http://www.w3.org/2000/svg">
<path d="M269.97 -191C244.571 -164.278 199.224 -100.993 221.025 -61.625C248.275 -12.4149 271.558 -50.7776 300.925 -17.9709C330.292 14.8359 306.745 100.292 344.844 120.4C382.942 140.507 415.748 149.502 608.62 164.054C801.492 178.605 599.36 398.992 608.62 440.795" stroke="white"/>
<path d="M2.48887 -12.4148C-7.30024 53.7278 26.6706 200.194 240.867 256.918C508.612 327.823 399.345 344.491 413.896 411.692C425.537 465.453 514.521 492.298 557.558 499" stroke="white"/>
<path d="M262.162 -186.156C237.32 -159.262 193.366 -96.2517 215.499 -56.5417C242.934 -7.25656 267.268 -43.2009 298.743 -10.5148C330.945 22.3638 309.112 106.096 346.393 126.239C383.674 146.382 414.948 155.703 602.786 170.771C790.742 186.386 596.507 401.523 606.683 442.373" stroke="white"/>
<path d="M253.781 -180.946C229.536 -153.867 187.082 -91.1524 209.572 -51.0746C237.205 -1.70878 262.669 -35.0521 296.413 -2.49554C331.663 30.4602 311.673 112.338 348.075 132.52C384.477 152.702 414.103 162.371 596.527 177.995C779.196 194.754 593.453 404.245 604.615 444.071" stroke="white"/>
<path d="M244.828 -175.37C221.224 -148.093 180.374 -85.6946 203.246 -45.2231C231.091 4.22897 257.766 -26.3305 293.936 6.08725C332.45 39.1255 314.431 119.019 349.893 139.242C385.354 159.465 413.217 169.508 589.846 185.727C766.857 203.71 590.203 407.158 602.419 445.889" stroke="white"/>
<path d="M235.309 -169.428C212.387 -141.94 173.248 -79.8786 196.527 -38.9877C224.598 10.5564 252.563 -17.0365 291.319 15.2334C333.31 48.3597 317.393 126.138 351.852 146.405C386.311 166.672 412.295 177.114 582.748 193.966C753.729 213.254 586.761 410.263 600.101 447.825" stroke="white"/>
<path d="M225.231 -163.12C203.034 -135.407 165.709 -73.7041 189.421 -32.3679C217.732 17.2738 247.066 -7.16974 288.568 24.9431C334.25 58.1629 320.564 133.696 353.959 154.01C387.354 174.324 411.342 185.188 575.24 202.713C739.819 223.386 583.135 413.559 597.668 449.881" stroke="white"/>
<path d="M214.601 -156.447C193.17 -128.496 157.766 -67.1717 181.936 -25.3643C210.501 24.3807 241.282 3.26919 285.689 35.2159C335.277 68.5346 323.952 141.692 356.221 162.056C388.49 182.419 410.367 193.731 567.329 211.968C725.136 234.106 579.33 417.045 595.125 452.056" stroke="white"/>
<path d="M203.427 -149.406C182.804 -121.206 149.426 -60.2808 174.078 -17.9765C202.911 31.8776 235.221 14.2808 282.692 46.0524C336.399 79.4753 327.564 150.127 358.646 170.543C389.727 190.958 409.378 202.742 559.023 221.73C709.685 245.414 575.356 420.724 592.483 454.351" stroke="white"/>
<path d="M191.719 -142C171.947 -113.537 140.7 -53.0317 165.86 -10.2045C194.974 39.7642 228.891 25.8649 279.586 57.4521C337.627 90.9848 331.412 159.001 361.244 179.471C391.075 199.942 408.384 212.222 550.333 232C693.479 257.309 571.222 424.593 589.75 456.765" stroke="white"/>
<path d="M179.49 -134.229C160.61 -105.488 131.6 -45.4243 157.293 -2.04858C186.703 48.0404 222.307 38.0215 276.384 69.4152C338.974 103.063 335.507 168.313 364.028 188.841C392.548 209.369 407.398 222.17 541.27 242.777C676.529 269.793 566.942 428.654 586.94 459.298" stroke="white"/>
<path d="M166.754 -126.09C148.808 -97.0608 122.14 -37.4586 148.391 6.49168C178.11 56.7067 215.48 50.7507 273.1 81.9419C340.452 115.71 339.864 178.064 367.011 198.652C394.159 219.24 406.435 232.587 531.849 254.062C658.85 282.864 562.529 432.906 584.065 461.95" stroke="white"/>
<path d="M153.53 -117.586C136.56 -88.2545 112.339 -29.1348 139.173 15.4158C169.216 65.7624 208.432 64.0521 269.753 95.0317C342.081 128.926 344.501 188.253 370.214 208.904C395.927 229.555 405.513 243.472 522.089 265.854C640.46 296.524 558.001 437.349 581.147 464.722" stroke="white"/>
<path d="M139.839 -108.716C123.888 -79.069 102.22 -20.4526 129.661 24.7241C160.042 75.2081 201.183 77.9263 266.365 108.685C343.883 142.711 349.441 198.88 373.657 219.597C397.874 240.314 404.655 254.825 512.012 278.154C621.382 310.771 553.382 441.983 578.205 467.613" stroke="white"/>
<path d="M125.709 -99.4802C110.818 -69.5046 91.8076 -11.4122 119.882 34.4165C150.614 85.0435 193.76 92.3729 262.962 122.902C345.885 157.064 354.709 209.946 377.368 230.732C400.026 251.517 403.886 266.648 501.645 290.961C601.641 325.606 548.698 446.809 575.267 470.623" stroke="white"/>
<path d="M111.172 -89.8782C97.3833 -59.5611 81.1366 -2.01356 109.87 44.493C140.967 95.2686 186.196 107.392 259.578 137.682C348.12 171.987 360.341 221.451 381.379 242.308C402.418 263.164 403.24 278.938 491.02 304.276C581.272 341.029 543.981 451.825 572.367 473.753" stroke="white"/>
<path d="M96.2708 -79.9099C83.6268 -49.2384 70.2486 7.74353 99.6651 54.9538C131.141 105.884 178.534 122.984 256.255 153.026C350.63 187.478 366.376 233.395 385.733 254.325C405.09 275.255 402.759 291.698 480.18 318.099C560.316 357.04 539.275 457.033 569.546 477.002" stroke="white"/>
<path d="M81.0541 -69.5759C69.5966 -38.537 59.1924 17.8586 89.3173 65.7983C121.187 116.888 170.822 139.148 253.041 168.932C353.464 203.538 372.865 245.776 390.479 266.783C408.092 287.79 402.493 304.925 469.174 332.428C538.822 373.639 534.627 462.433 566.853 480.37" stroke="white"/>
<path d="M65.583 -58.8757C55.3541 -27.4564 48.0291 28.3321 78.8876 77.0272C111.164 128.283 163.122 155.884 249.998 185.403C356.682 220.167 379.868 258.597 395.677 279.683C411.485 300.769 402.501 318.621 458.062 347.266C516.852 390.826 530.099 468.023 564.349 483.857" stroke="white"/>
<path d="M49.9251 -47.8096C40.9667 -15.9967 36.8264 39.1638 68.4435 88.6401C101.141 140.067 155.501 173.193 247.193 202.436C360.353 237.364 387.454 271.856 401.395 293.024C415.336 314.192 402.852 332.786 446.912 362.611C494.472 408.601 525.759 473.805 562.101 487.464" stroke="white"/>
<path d="M34.1528 -36.3772C26.507 -4.15788 25.6566 50.354 58.0574 100.637C91.1896 152.241 148.031 191.075 244.699 220.034C364.549 255.131 395.693 285.553 407.706 306.806C419.719 328.059 403.619 347.419 435.798 378.464C471.756 426.964 521.678 479.778 560.183 491.19" stroke="white"/>
<path d="M18.3288 -24.5791C12.0376 8.05971 14.5824 61.9021 47.7921 113.018C81.373 164.805 140.775 209.529 242.578 238.194C369.333 273.466 404.65 299.689 414.672 321.029C424.694 342.369 404.863 362.521 424.78 394.824C448.766 445.914 517.92 485.942 558.657 495.035" stroke="white"/>
</svg>
