<svg width="109" height="113" viewBox="0 0 109 113" fill="none" xmlns="http://www.w3.org/2000/svg">
<path d="M37.0264 91.3643C36.6487 91.3484 36.2725 91.3271 35.8975 91.3008V0.0625C36.2725 0.0361948 36.6488 0.0158884 37.0264 0V91.3643ZM41.0264 0.0263672C41.404 0.0477087 41.7803 0.0737053 42.1553 0.105469V91.2578C41.7803 91.2896 41.404 91.3165 41.0264 91.3379V0.0263672ZM31.8975 90.8184C31.5197 90.7534 31.1439 90.682 30.7695 90.6064V0.756836C31.1439 0.681321 31.5197 0.609917 31.8975 0.544922V90.8184ZM46.1553 0.648438C46.533 0.719175 46.909 0.794703 47.2832 0.875977V90.4873C46.909 90.5686 46.533 90.6441 46.1553 90.7148V0.648438ZM26.7695 89.585C26.3912 89.4671 26.0155 89.3425 25.6416 89.2139V2.15039C26.0155 2.02175 26.3912 1.89713 26.7695 1.7793V89.585ZM51.2832 1.96484C51.6616 2.08902 52.0382 2.21751 52.4121 2.35254V89.0117C52.0382 89.1468 51.6616 89.2752 51.2832 89.3994V1.96484ZM21.6416 87.5957C21.263 87.4187 20.8874 87.2361 20.5146 87.0479V4.31641C20.8874 4.12814 21.263 3.94553 21.6416 3.76855V87.5957ZM56.4121 4.04395C56.7913 4.22852 57.1668 4.42023 57.54 4.61621V86.748C57.1668 86.944 56.7913 87.1357 56.4121 87.3203V4.04395ZM16.5146 84.7441C16.1336 84.4955 15.7579 84.2385 15.3848 83.9775V7.38672C15.7579 7.12577 16.1336 6.86879 16.5146 6.62012V84.7441ZM61.54 7.00977C61.9198 7.26666 62.2964 7.52863 62.668 7.79785V83.5664C62.2964 83.8356 61.9198 84.0976 61.54 84.3545V7.00977ZM11.3848 80.8115C11.003 80.4709 10.6272 80.123 10.2568 79.7686V11.5957C10.6274 11.2411 11.0028 10.8925 11.3848 10.5518V80.8115ZM66.668 11.0791C67.0505 11.4328 67.4254 11.7953 67.7959 12.1631V79.2012C67.4254 79.569 67.0505 79.9314 66.668 80.2852V11.0791ZM6.25684 75.3955C5.87215 74.9147 5.49497 74.4265 5.12891 73.9287V17.4346C5.49497 16.9368 5.87215 16.4486 6.25684 15.9678V75.3955ZM71.7959 16.7109C72.1815 17.214 72.5582 17.7254 72.9238 18.2461V73.1172C72.558 73.6381 72.1817 74.15 71.7959 74.6533V16.7109ZM1.12891 67.418C0.730598 66.6308 0.355586 65.8288 0 65.0146V26.3496C0.355709 25.5352 0.730447 24.7327 1.12891 23.9453V67.418ZM76.9238 25.1426C77.3244 25.9934 77.7013 26.8591 78.0527 27.7393V63.625C77.7013 64.5052 77.3244 65.3709 76.9238 66.2217V25.1426Z" fill="#CA0F3E"/>
<path d="M67.998 26.2788C89.8577 26.279 107.691 45.2587 107.691 68.8159C107.691 92.3732 89.8578 111.353 67.998 111.353C46.1382 111.353 28.3037 92.3733 28.3037 68.8159C28.3038 45.2586 46.1382 26.2788 67.998 26.2788Z" stroke="#A00F33" stroke-width="2"/>
</svg>
