<svg width="395" height="116" viewBox="0 0 395 116" fill="none" xmlns="http://www.w3.org/2000/svg">
<path d="M49.0404 0L0 8.46329V96.2182L49.0404 116V0Z" fill="#A00F33"/>
<path d="M57.957 0V16.6207L90.5735 22.4958V41.2642H57.957V57.8826H90.5735V83.5288L57.957 96.639V116L106.997 96.2182V8.46329L57.957 0Z" fill="white"/>
<path d="M137.139 36.2079V29.0595H162.085V36.2079H137.139ZM143.427 8.03076C146.975 8.03076 150.245 8.65537 153.24 9.9046C156.234 11.1077 158.837 12.8428 161.048 15.1097C163.305 17.3306 165.033 19.9679 166.231 23.0215C167.475 26.0752 168.097 29.4065 168.097 33.0154C168.097 36.6243 167.475 39.9555 166.231 43.0092C165.033 46.0629 163.305 48.7235 161.048 50.9904C158.837 53.2113 156.234 54.9463 153.24 56.1955C150.245 57.3987 146.975 58 143.427 58C139.327 58 135.595 57.306 132.233 55.9179C128.916 54.5299 126.152 52.5173 123.94 49.88L129.607 44.3279C131.403 46.2711 133.407 47.7285 135.619 48.7002C137.876 49.6257 140.318 50.0882 142.943 50.0882C145.247 50.0882 147.389 49.6718 149.37 48.839C151.351 47.9601 153.056 46.7802 154.484 45.2995C155.911 43.7726 157.017 41.9682 157.8 39.8861C158.584 37.8041 158.975 35.5138 158.975 33.0154C158.975 30.5169 158.584 28.2267 157.8 26.1446C157.017 24.0626 155.911 22.2814 154.484 20.8007C153.056 19.2738 151.351 18.094 149.37 17.2612C147.389 16.3823 145.247 15.9426 142.943 15.9426C140.318 15.9426 137.876 16.4284 135.619 17.4C133.407 18.3255 131.403 19.7596 129.607 21.7029L123.94 16.1508C126.152 13.5135 128.916 11.5008 132.233 10.1128C135.595 8.72478 139.327 8.03076 143.427 8.03076ZM189.93 57.306V8.72478H197.255L218.469 44.1891H214.53L235.399 8.72478H242.724L242.862 57.306H234.294L234.224 22.1193H236.021L218.331 51.7538H214.323L196.357 22.1193H198.43V57.306H189.93ZM268.215 57.306V8.72478H277.06V43.2174L303.042 8.72478H311.404V57.306H302.559V22.8827L276.576 57.306H268.215ZM346.871 57.306V14.1381L349.014 16.359H330.909V8.72478H371.817V16.359H353.713L355.786 14.1381V57.306H346.871Z" fill="white"/>
<path d="M123.94 79.7092V70.6801H125.221V77.6454L130.574 70.6801H131.763V79.7092H130.496V72.7568L125.13 79.7092H123.94ZM141.076 70.6801H142.369V79.7092H141.076V70.6801ZM135.878 79.7092H134.585V70.6801H135.878V79.7092ZM141.192 75.6848H135.749V74.5626H141.192V75.6848ZM149.239 79.8124C148.549 79.8124 147.911 79.7006 147.325 79.477C146.748 79.2449 146.243 78.9224 145.812 78.5096C145.39 78.0883 145.058 77.5981 144.817 77.0392C144.575 76.4802 144.455 75.8654 144.455 75.1947C144.455 74.5239 144.575 73.9091 144.817 73.3501C145.058 72.7912 145.394 72.3053 145.825 71.8926C146.256 71.4712 146.76 71.1488 147.338 70.9252C147.924 70.693 148.562 70.5769 149.252 70.5769C149.95 70.5769 150.592 70.6973 151.178 70.9381C151.773 71.1702 152.277 71.5185 152.691 71.9829L151.851 72.7955C151.506 72.4343 151.118 72.1678 150.687 71.9958C150.256 71.8152 149.795 71.7249 149.303 71.7249C148.795 71.7249 148.321 71.8109 147.881 71.9829C147.45 72.1549 147.075 72.3956 146.756 72.7052C146.437 73.0148 146.187 73.3845 146.006 73.8145C145.834 74.2359 145.748 74.6959 145.748 75.1947C145.748 75.6934 145.834 76.1578 146.006 76.5877C146.187 77.0091 146.437 77.3745 146.756 77.6841C147.075 77.9937 147.45 78.2345 147.881 78.4065C148.321 78.5784 148.795 78.6644 149.303 78.6644C149.795 78.6644 150.256 78.5784 150.687 78.4065C151.118 78.2259 151.506 77.9507 151.851 77.5809L152.691 78.3936C152.277 78.8579 151.773 79.2105 151.178 79.4513C150.592 79.692 149.946 79.8124 149.239 79.8124ZM156.22 79.7092V71.4669L156.544 71.8023H153.13V70.6801H160.591V71.8023H157.177L157.488 71.4669V79.7092H156.22ZM162.162 79.7092V70.6801H163.442V77.6454L168.796 70.6801H169.985V79.7092H168.718V72.7568L163.352 79.7092H162.162ZM174.656 79.7092V71.4669L174.979 71.8023H171.566V70.6801H179.027V71.8023H175.613L175.923 71.4669V79.7092H174.656ZM180.181 78.5741C180.629 78.7375 181.043 78.7805 181.422 78.7031C181.802 78.6171 182.142 78.3291 182.444 77.8389L182.883 77.1424L183.013 77.0005L186.336 70.6801H187.616L183.595 78.1098C183.293 78.6773 182.94 79.1073 182.534 79.3997C182.138 79.6834 181.707 79.8382 181.241 79.864C180.784 79.8984 180.319 79.8124 179.845 79.606L180.181 78.5741ZM182.974 78.1485L179.004 70.6801H180.388L183.685 77.1166L182.974 78.1485ZM190.895 79.7092V71.4669L191.218 71.8023H187.804V70.6801H195.265V71.8023H191.852L192.162 71.4669V79.7092H190.895ZM201.641 75.6461V74.5884H206.49V75.6461H201.641ZM202.804 70.5769C203.46 70.5769 204.063 70.693 204.615 70.9252C205.166 71.1488 205.645 71.4712 206.05 71.8926C206.464 72.3053 206.783 72.7912 207.007 73.3501C207.239 73.9091 207.356 74.5239 207.356 75.1947C207.356 75.8654 207.239 76.4802 207.007 77.0392C206.783 77.5981 206.464 78.0883 206.05 78.5096C205.645 78.9224 205.166 79.2449 204.615 79.477C204.063 79.7006 203.46 79.8124 202.804 79.8124C202.08 79.8124 201.412 79.692 200.8 79.4513C200.197 79.2105 199.688 78.8579 199.275 78.3936L200.089 77.5809C200.451 77.9507 200.852 78.2216 201.292 78.3936C201.74 78.5655 202.223 78.6515 202.74 78.6515C203.214 78.6515 203.654 78.5655 204.059 78.3936C204.464 78.2216 204.813 77.9851 205.106 77.6841C205.408 77.3745 205.64 77.0091 205.804 76.5877C205.968 76.1578 206.05 75.6934 206.05 75.1947C206.05 74.6959 205.968 74.2359 205.804 73.8145C205.64 73.3845 205.408 73.0191 205.106 72.7181C204.813 72.4085 204.464 72.1678 204.059 71.9958C203.654 71.8238 203.214 71.7378 202.74 71.7378C202.223 71.7378 201.74 71.8238 201.292 71.9958C200.852 72.1678 200.451 72.4386 200.089 72.8084L199.275 71.9958C199.688 71.5314 200.197 71.1788 200.8 70.9381C201.412 70.6973 202.08 70.5769 202.804 70.5769ZM215.541 79.7092L212.257 75.2592L213.304 74.6142L217.015 79.7092H215.541ZM209.451 79.7092V70.6801H210.718V79.7092H209.451ZM210.33 75.7364V74.6013H213.265V75.7364H210.33ZM213.421 75.3365L212.231 75.156L215.477 70.6801H216.86L213.421 75.3365ZM222.388 79.8124C221.699 79.8124 221.056 79.6963 220.462 79.4642C219.875 79.232 219.367 78.9095 218.936 78.4967C218.505 78.0754 218.169 77.5852 217.927 77.0263C217.686 76.4673 217.565 75.8568 217.565 75.1947C217.565 74.5325 217.686 73.922 217.927 73.363C218.169 72.8041 218.505 72.3182 218.936 71.9055C219.367 71.4841 219.875 71.1574 220.462 70.9252C221.048 70.693 221.69 70.5769 222.388 70.5769C223.078 70.5769 223.711 70.693 224.289 70.9252C224.875 71.1488 225.384 71.4712 225.815 71.8926C226.254 72.3053 226.591 72.7912 226.823 73.3501C227.065 73.9091 227.185 74.5239 227.185 75.1947C227.185 75.8654 227.065 76.4802 226.823 77.0392C226.591 77.5981 226.254 78.0883 225.815 78.5096C225.384 78.9224 224.875 79.2449 224.289 79.477C223.711 79.7006 223.078 79.8124 222.388 79.8124ZM222.388 78.6644C222.888 78.6644 223.349 78.5784 223.772 78.4065C224.203 78.2345 224.573 77.9937 224.884 77.6841C225.203 77.3659 225.448 76.9962 225.621 76.5748C225.802 76.1535 225.892 75.6934 225.892 75.1947C225.892 74.6959 225.802 74.2359 225.621 73.8145C225.448 73.3931 225.203 73.0277 224.884 72.7181C224.573 72.3999 224.203 72.1549 223.772 71.9829C223.349 71.8109 222.888 71.7249 222.388 71.7249C221.88 71.7249 221.41 71.8109 220.979 71.9829C220.556 72.1549 220.186 72.3999 219.867 72.7181C219.548 73.0277 219.298 73.3931 219.117 73.8145C218.944 74.2359 218.858 74.6959 218.858 75.1947C218.858 75.6934 218.944 76.1535 219.117 76.5748C219.298 76.9962 219.548 77.3659 219.867 77.6841C220.186 77.9937 220.556 78.2345 220.979 78.4065C221.41 78.5784 221.88 78.6644 222.388 78.6644ZM235.767 70.6801H237.06V79.7092H235.767V70.6801ZM230.569 79.7092H229.276V70.6801H230.569V79.7092ZM235.883 75.6848H230.439V74.5626H235.883V75.6848ZM243.955 79.8124C243.266 79.8124 242.623 79.6963 242.029 79.4642C241.442 79.232 240.934 78.9095 240.503 78.4967C240.072 78.0754 239.736 77.5852 239.494 77.0263C239.253 76.4673 239.132 75.8568 239.132 75.1947C239.132 74.5325 239.253 73.922 239.494 73.363C239.736 72.8041 240.072 72.3182 240.503 71.9055C240.934 71.4841 241.442 71.1574 242.029 70.9252C242.615 70.693 243.257 70.5769 243.955 70.5769C244.645 70.5769 245.278 70.693 245.856 70.9252C246.442 71.1488 246.951 71.4712 247.382 71.8926C247.821 72.3053 248.157 72.7912 248.39 73.3501C248.632 73.9091 248.752 74.5239 248.752 75.1947C248.752 75.8654 248.632 76.4802 248.39 77.0392C248.157 77.5981 247.821 78.0883 247.382 78.5096C246.951 78.9224 246.442 79.2449 245.856 79.477C245.278 79.7006 244.645 79.8124 243.955 79.8124ZM243.955 78.6644C244.455 78.6644 244.916 78.5784 245.339 78.4065C245.77 78.2345 246.14 77.9937 246.451 77.6841C246.77 77.3659 247.015 76.9962 247.188 76.5748C247.369 76.1535 247.459 75.6934 247.459 75.1947C247.459 74.6959 247.369 74.2359 247.188 73.8145C247.015 73.3931 246.77 73.0277 246.451 72.7181C246.14 72.3999 245.77 72.1549 245.339 71.9829C244.916 71.8109 244.455 71.7249 243.955 71.7249C243.447 71.7249 242.977 71.8109 242.546 71.9829C242.123 72.1549 241.753 72.3999 241.434 72.7181C241.115 73.0277 240.865 73.3931 240.684 73.8145C240.511 74.2359 240.425 74.6959 240.425 75.1947C240.425 75.6934 240.511 76.1535 240.684 76.5748C240.865 76.9962 241.115 77.3659 241.434 77.6841C241.753 77.9937 242.123 78.2345 242.546 78.4065C242.977 78.5784 243.447 78.6644 243.955 78.6644ZM250.843 79.7092V70.6801H251.903L255.963 77.5035H255.394L259.402 70.6801H260.463L260.476 79.7092H259.234L259.221 72.6278H259.519L255.95 78.6128H255.355L251.761 72.6278H252.084V79.7092H250.843ZM263.293 79.7092V70.6801H264.573V77.6454L269.926 70.6801H271.115V79.7092H269.848V72.7568L264.482 79.7092H263.293ZM280.027 79.7092L276.743 75.2592L277.791 74.6142L281.502 79.7092H280.027ZM273.937 79.7092V70.6801H275.205V79.7092H273.937ZM274.817 75.7364V74.6013H277.752V75.7364H274.817ZM277.907 75.3365L276.717 75.156L279.963 70.6801H281.346L277.907 75.3365ZM282.827 79.7092V70.6801H284.107V77.6454L289.46 70.6801H290.65V79.7092H289.382V72.7568L284.016 79.7092H282.827ZM292.747 81.6182L293.394 79.0127L293.562 79.7608C293.312 79.7608 293.101 79.6834 292.929 79.5286C292.765 79.3739 292.683 79.1632 292.683 78.8966C292.683 78.6386 292.765 78.4279 292.929 78.2646C293.101 78.1012 293.308 78.0195 293.549 78.0195C293.799 78.0195 294.002 78.1055 294.157 78.2775C294.312 78.4408 294.39 78.6472 294.39 78.8966C294.39 78.9826 294.381 79.0686 294.364 79.1546C294.355 79.232 294.334 79.3266 294.299 79.4384C294.273 79.5415 294.23 79.6705 294.17 79.8253L293.562 81.6182H292.747ZM299.874 79.7092V70.6801H300.934L304.994 77.5035H304.425L308.433 70.6801H309.494L309.507 79.7092H308.265L308.252 72.6278H308.55L304.981 78.6128H304.386L300.792 72.6278H301.115V79.7092H299.874ZM311.069 79.7092L315.168 70.6801H316.448L320.56 79.7092H319.202L315.543 71.4024H316.06L312.401 79.7092H311.069ZM312.815 77.4519L313.164 76.42H318.259L318.634 77.4519H312.815ZM323.517 79.7092V71.4669L323.84 71.8023H320.427V70.6801H327.887V71.8023H324.474L324.784 71.4669V79.7092H323.517ZM330.635 74.5755H335.29V75.6719H330.635V74.5755ZM330.752 78.587H336.027V79.7092H329.459V70.6801H335.846V71.8023H330.752V78.587ZM338.058 79.7092V70.6801H339.118L343.178 77.5035H342.609L346.618 70.6801H347.678L347.691 79.7092H346.45L346.437 72.6278H346.734L343.165 78.6128H342.57L338.976 72.6278H339.299V79.7092H338.058ZM349.254 79.7092L353.353 70.6801H354.633L358.744 79.7092H357.387L353.728 71.4024H354.245L350.586 79.7092H349.254ZM350.999 77.4519L351.348 76.42H356.443L356.818 77.4519H350.999ZM361.701 79.7092V71.4669L362.024 71.8023H358.611V70.6801H366.072V71.8023H362.658L362.968 71.4669V79.7092H361.701ZM367.643 79.7092V70.6801H368.923V77.6454L374.276 70.6801H375.466V79.7092H374.199V72.7568L368.833 79.7092H367.643ZM384.378 79.7092L381.094 75.2592L382.141 74.6142L385.852 79.7092H384.378ZM378.288 79.7092V70.6801H379.555V79.7092H378.288ZM379.167 75.7364V74.6013H382.102V75.7364H379.167ZM382.257 75.3365L381.068 75.156L384.313 70.6801H385.697L382.257 75.3365ZM387.177 79.7092V70.6801H388.457V77.6454L393.81 70.6801H395V79.7092H393.733V72.7568L388.367 79.7092H387.177ZM123.94 95.2952V86.2661H125.221V93.2314L130.574 86.2661H131.763V95.2952H130.496V88.3428L125.13 95.2952H123.94ZM138.057 95.2952V86.2661H139.338V93.2314L144.691 86.2661H145.88V95.2952H144.613V88.3428L139.247 95.2952H138.057ZM155.193 86.2661H156.486V95.2952H155.193V86.2661ZM149.995 95.2952H148.702V86.2661H149.995V95.2952ZM155.309 91.2708H149.866V90.1486H155.309V91.2708ZM163.731 94.689C162.627 94.689 161.683 94.5385 160.899 94.2375C160.115 93.928 159.516 93.4808 159.102 92.8961C158.688 92.3113 158.481 91.6019 158.481 90.7678C158.481 89.9336 158.688 89.2242 159.102 88.6395C159.516 88.0547 160.115 87.6076 160.899 87.298C161.683 86.9884 162.627 86.8336 163.731 86.8336C163.748 86.8336 163.778 86.8336 163.821 86.8336C163.873 86.8336 163.92 86.8336 163.963 86.8336C164.015 86.8336 164.045 86.8336 164.054 86.8336C165.157 86.8336 166.097 86.9884 166.873 87.298C167.657 87.6076 168.256 88.0547 168.67 88.6395C169.084 89.2242 169.291 89.9336 169.291 90.7678C169.291 91.5933 169.084 92.3027 168.67 92.8961C168.265 93.4808 167.674 93.928 166.899 94.2375C166.131 94.5385 165.2 94.689 164.106 94.689C164.088 94.689 164.05 94.689 163.989 94.689C163.938 94.689 163.886 94.689 163.834 94.689C163.782 94.689 163.748 94.689 163.731 94.689ZM163.873 93.6829C163.89 93.6829 163.912 93.6829 163.938 93.6829C163.963 93.6829 163.976 93.6829 163.976 93.6829C164.856 93.6743 165.597 93.5625 166.2 93.3475C166.804 93.1239 167.261 92.7972 167.571 92.3672C167.89 91.9287 168.049 91.3912 168.049 90.7549C168.049 90.1271 167.89 89.5983 167.571 89.1683C167.252 88.7384 166.791 88.4116 166.187 88.188C165.593 87.9644 164.864 87.8526 164.002 87.8526C163.994 87.8526 163.972 87.8526 163.938 87.8526C163.912 87.8526 163.89 87.8526 163.873 87.8526C162.985 87.8526 162.231 87.9644 161.61 88.188C160.998 88.403 160.533 88.7255 160.214 89.1554C159.895 89.5854 159.735 90.1228 159.735 90.7678C159.735 91.4127 159.899 91.9501 160.227 92.3801C160.554 92.8101 161.024 93.1368 161.636 93.3604C162.257 93.5754 163.002 93.6829 163.873 93.6829ZM163.291 95.6306V85.9307H164.494V95.6306H163.291ZM175.352 95.3984C174.663 95.3984 174.02 95.2823 173.426 95.0502C172.839 94.818 172.331 94.4955 171.9 94.0827C171.469 93.6614 171.133 93.1712 170.891 92.6123C170.65 92.0533 170.529 91.4428 170.529 90.7807C170.529 90.1185 170.65 89.508 170.891 88.949C171.133 88.3901 171.469 87.9042 171.9 87.4915C172.331 87.0701 172.839 86.7434 173.426 86.5112C174.012 86.279 174.654 86.1629 175.352 86.1629C176.042 86.1629 176.675 86.279 177.253 86.5112C177.839 86.7348 178.348 87.0572 178.779 87.4786C179.218 87.8913 179.555 88.3772 179.787 88.9361C180.029 89.4951 180.149 90.1099 180.149 90.7807C180.149 91.4514 180.029 92.0662 179.787 92.6252C179.555 93.1841 179.218 93.6743 178.779 94.0956C178.348 94.5084 177.839 94.8309 177.253 95.063C176.675 95.2866 176.042 95.3984 175.352 95.3984ZM175.352 94.2504C175.852 94.2504 176.313 94.1644 176.736 93.9924C177.167 93.8205 177.537 93.5797 177.848 93.2701C178.167 92.9519 178.412 92.5822 178.585 92.1608C178.766 91.7395 178.856 91.2794 178.856 90.7807C178.856 90.2819 178.766 89.8219 178.585 89.4005C178.412 88.9791 178.167 88.6137 177.848 88.3041C177.537 87.9859 177.167 87.7408 176.736 87.5689C176.313 87.3969 175.852 87.3109 175.352 87.3109C174.844 87.3109 174.374 87.3969 173.943 87.5689C173.52 87.7408 173.15 87.9859 172.831 88.3041C172.512 88.6137 172.262 88.9791 172.081 89.4005C171.908 89.8219 171.822 90.2819 171.822 90.7807C171.822 91.2794 171.908 91.7395 172.081 92.1608C172.262 92.5822 172.512 92.9519 172.831 93.2701C173.15 93.5797 173.52 93.8205 173.943 93.9924C174.374 94.1644 174.844 94.2504 175.352 94.2504ZM182.24 95.2952V86.2661H185.77C186.563 86.2661 187.239 86.3908 187.8 86.6402C188.36 86.8895 188.791 87.2507 189.093 87.7237C189.394 88.1966 189.545 88.7599 189.545 89.4134C189.545 90.0669 189.394 90.6302 189.093 91.1031C188.791 91.5675 188.36 91.9287 187.8 92.1866C187.239 92.436 186.563 92.5607 185.77 92.5607H182.951L183.533 91.9544V95.2952H182.24ZM183.533 92.0834L182.951 91.4385H185.731C186.558 91.4385 187.183 91.2622 187.606 90.9096C188.037 90.5571 188.252 90.0583 188.252 89.4134C188.252 88.7685 188.037 88.2697 187.606 87.9171C187.183 87.5646 186.558 87.3883 185.731 87.3883H182.951L183.533 86.7433V92.0834ZM191.344 95.2952V86.2661H192.404L196.464 93.0895H195.895L199.903 86.2661H200.964L200.976 95.2952H199.735L199.722 88.2138H200.02L196.451 94.1988H195.856L192.262 88.2138H192.585V95.2952H191.344ZM202.54 95.2952L206.639 86.2661H207.919L212.031 95.2952H210.673L207.014 86.9884H207.531L203.872 95.2952H202.54ZM204.286 93.0379L204.635 92.006H209.729L210.104 93.0379H204.286ZM213.592 95.2952V86.2661H214.873V94.173H219.915V86.2661H221.195V95.2952H213.592ZM221.389 97.3461V94.9599L221.7 95.2952H219.915V94.173H222.592V97.3461H221.389ZM224.313 95.2952V86.2661H225.593V93.2314L230.946 86.2661H232.136V95.2952H230.869V88.3428L225.503 95.2952H224.313ZM239.031 95.3984C238.341 95.3984 237.699 95.2823 237.104 95.0502C236.518 94.818 236.01 94.4955 235.579 94.0827C235.148 93.6614 234.811 93.1712 234.57 92.6123C234.329 92.0533 234.208 91.4428 234.208 90.7807C234.208 90.1185 234.329 89.508 234.57 88.949C234.811 88.3901 235.148 87.9042 235.579 87.4915C236.01 87.0701 236.518 86.7434 237.104 86.5112C237.69 86.279 238.333 86.1629 239.031 86.1629C239.721 86.1629 240.354 86.279 240.932 86.5112C241.518 86.7348 242.026 87.0572 242.457 87.4786C242.897 87.8913 243.233 88.3772 243.466 88.9361C243.707 89.4951 243.828 90.1099 243.828 90.7807C243.828 91.4514 243.707 92.0662 243.466 92.6252C243.233 93.1841 242.897 93.6743 242.457 94.0956C242.026 94.5084 241.518 94.8309 240.932 95.063C240.354 95.2866 239.721 95.3984 239.031 95.3984ZM239.031 94.2504C239.531 94.2504 239.992 94.1644 240.414 93.9924C240.845 93.8205 241.216 93.5797 241.526 93.2701C241.845 92.9519 242.091 92.5822 242.263 92.1608C242.444 91.7395 242.535 91.2794 242.535 90.7807C242.535 90.2819 242.444 89.8219 242.263 89.4005C242.091 88.9791 241.845 88.6137 241.526 88.3041C241.216 87.9859 240.845 87.7408 240.414 87.5689C239.992 87.3969 239.531 87.3109 239.031 87.3109C238.522 87.3109 238.053 87.3969 237.622 87.5689C237.199 87.7408 236.828 87.9859 236.51 88.3041C236.191 88.6137 235.941 88.9791 235.76 89.4005C235.587 89.8219 235.501 90.2819 235.501 90.7807C235.501 91.2794 235.587 91.7395 235.76 92.1608C235.941 92.5822 236.191 92.9519 236.51 93.2701C236.828 93.5797 237.199 93.8205 237.622 93.9924C238.053 94.1644 238.522 94.2504 239.031 94.2504ZM252.409 86.2661H253.702V95.2952H252.409V86.2661ZM247.211 95.2952H245.918V86.2661H247.211V95.2952ZM252.525 91.2708H247.082V90.1486H252.525V91.2708ZM263.016 86.2661H264.309V95.2952H263.016V86.2661ZM257.818 95.2952H256.525V86.2661H257.818V95.2952ZM263.132 91.2708H257.689V90.1486H263.132V91.2708ZM271.101 89.4134C272.17 89.4134 272.993 89.6542 273.57 90.1357C274.148 90.6087 274.437 91.3181 274.437 92.264C274.437 93.2615 274.122 94.0183 273.493 94.5342C272.872 95.0416 271.997 95.2952 270.868 95.2952H267.131V86.2661H268.411V89.4134H271.101ZM270.816 94.2762C271.566 94.2762 272.14 94.1085 272.536 93.7732C272.941 93.4378 273.144 92.9433 273.144 92.2898C273.144 91.6535 272.946 91.1848 272.549 90.8838C272.152 90.5829 271.575 90.4324 270.816 90.4324H268.411V94.2762H270.816ZM275.872 95.2952V86.2661H277.152V95.2952H275.872ZM279.003 86.2661H280.49L282.856 89.5682L285.223 86.2661H286.735L283.671 90.6001L286.981 95.2952H285.455L282.856 91.6965L280.27 95.2952H278.783L282.081 90.6517L279.003 86.2661ZM293.932 95.2952V87.0529L294.255 87.3883H290.841V86.2661H298.302V87.3883H294.889L295.199 87.0529V95.2952H293.932ZM301.05 90.1615H305.705V91.2579H301.05V90.1615ZM301.167 94.173H306.442V95.2952H299.874V86.2661H306.261V87.3883H301.167V94.173ZM307.402 86.2661H308.889L311.255 89.5682L313.621 86.2661H315.134L312.069 90.6001L315.38 95.2952H313.854L311.255 91.6965L308.669 95.2952H307.182L310.479 90.6517L307.402 86.2661ZM323.196 86.2661H324.489V95.2952H323.196V86.2661ZM317.998 95.2952H316.705V86.2661H317.998V95.2952ZM323.313 91.2708H317.869V90.1486H323.313V91.2708ZM331.385 95.3984C330.695 95.3984 330.053 95.2823 329.458 95.0502C328.872 94.818 328.364 94.4955 327.932 94.0827C327.501 93.6614 327.165 93.1712 326.924 92.6123C326.683 92.0533 326.562 91.4428 326.562 90.7807C326.562 90.1185 326.683 89.508 326.924 88.949C327.165 88.3901 327.501 87.9042 327.932 87.4915C328.364 87.0701 328.872 86.7434 329.458 86.5112C330.044 86.279 330.687 86.1629 331.385 86.1629C332.074 86.1629 332.708 86.279 333.286 86.5112C333.872 86.7348 334.38 87.0572 334.811 87.4786C335.251 87.8913 335.587 88.3772 335.82 88.9361C336.061 89.4951 336.182 90.1099 336.182 90.7807C336.182 91.4514 336.061 92.0662 335.82 92.6252C335.587 93.1841 335.251 93.6743 334.811 94.0956C334.38 94.5084 333.872 94.8309 333.286 95.063C332.708 95.2866 332.074 95.3984 331.385 95.3984ZM331.385 94.2504C331.885 94.2504 332.346 94.1644 332.768 93.9924C333.199 93.8205 333.57 93.5797 333.88 93.2701C334.199 92.9519 334.445 92.5822 334.617 92.1608C334.798 91.7395 334.889 91.2794 334.889 90.7807C334.889 90.2819 334.798 89.8219 334.617 89.4005C334.445 88.9791 334.199 88.6137 333.88 88.3041C333.57 87.9859 333.199 87.7408 332.768 87.5689C332.346 87.3969 331.885 87.3109 331.385 87.3109C330.876 87.3109 330.406 87.3969 329.975 87.5689C329.553 87.7408 329.182 87.9859 328.863 88.3041C328.545 88.6137 328.295 88.9791 328.114 89.4005C327.941 89.8219 327.855 90.2819 327.855 90.7807C327.855 91.2794 327.941 91.7395 328.114 92.1608C328.295 92.5822 328.545 92.9519 328.863 93.2701C329.182 93.5797 329.553 93.8205 329.975 93.9924C330.406 94.1644 330.876 94.2504 331.385 94.2504ZM337.593 95.3984C337.464 95.3984 337.334 95.3898 337.205 95.3726C337.076 95.3554 336.933 95.3296 336.778 95.2952L336.869 94.1472C337.007 94.1816 337.145 94.1988 337.283 94.1988C337.662 94.1988 337.964 94.0483 338.188 93.7474C338.412 93.4464 338.576 92.9906 338.679 92.3801C338.791 91.7696 338.864 90.9999 338.899 90.0712L339.041 86.2661H345.416V95.2952H344.148V87.0529L344.459 87.3883H339.869L340.153 87.04L340.05 90.0325C340.024 90.9269 339.963 91.7094 339.869 92.3801C339.774 93.0508 339.632 93.6098 339.442 94.057C339.252 94.5041 339.007 94.8395 338.705 95.063C338.412 95.2866 338.041 95.3984 337.593 95.3984ZM352.308 95.3984C351.618 95.3984 350.976 95.2823 350.381 95.0502C349.795 94.818 349.287 94.4955 348.856 94.0827C348.425 93.6614 348.088 93.1712 347.847 92.6123C347.606 92.0533 347.485 91.4428 347.485 90.7807C347.485 90.1185 347.606 89.508 347.847 88.949C348.088 88.3901 348.425 87.9042 348.856 87.4915C349.287 87.0701 349.795 86.7434 350.381 86.5112C350.967 86.279 351.61 86.1629 352.308 86.1629C352.998 86.1629 353.631 86.279 354.209 86.5112C354.795 86.7348 355.303 87.0572 355.734 87.4786C356.174 87.8913 356.51 88.3772 356.743 88.9361C356.984 89.4951 357.105 90.1099 357.105 90.7807C357.105 91.4514 356.984 92.0662 356.743 92.6252C356.51 93.1841 356.174 93.6743 355.734 94.0956C355.303 94.5084 354.795 94.8309 354.209 95.063C353.631 95.2866 352.998 95.3984 352.308 95.3984ZM352.308 94.2504C352.808 94.2504 353.269 94.1644 353.691 93.9924C354.122 93.8205 354.493 93.5797 354.803 93.2701C355.122 92.9519 355.368 92.5822 355.54 92.1608C355.721 91.7395 355.812 91.2794 355.812 90.7807C355.812 90.2819 355.721 89.8219 355.54 89.4005C355.368 88.9791 355.122 88.6137 354.803 88.3041C354.493 87.9859 354.122 87.7408 353.691 87.5689C353.269 87.3969 352.808 87.3109 352.308 87.3109C351.799 87.3109 351.33 87.3969 350.899 87.5689C350.476 87.7408 350.105 87.9859 349.787 88.3041C349.468 88.6137 349.218 88.9791 349.037 89.4005C348.864 89.8219 348.778 90.2819 348.778 90.7807C348.778 91.2794 348.864 91.7395 349.037 92.1608C349.218 92.5822 349.468 92.9519 349.787 93.2701C350.105 93.5797 350.476 93.8205 350.899 93.9924C351.33 94.1644 351.799 94.2504 352.308 94.2504ZM359.195 95.2952V86.2661H365.13L365.117 87.3883H360.152L360.463 87.0658L360.475 95.2952H359.195ZM366.671 95.2952V86.2661H367.951V93.2314L373.304 86.2661H374.493V95.2952H373.226V88.3428L367.86 95.2952H366.671ZM377.315 95.2952V86.2661H378.595V93.2314L383.948 86.2661H385.138V95.2952H383.871V88.3428L378.505 95.2952H377.315ZM381.207 85.6341C380.5 85.6341 379.953 85.4793 379.565 85.1697C379.186 84.8601 378.992 84.4259 378.983 83.8669H379.901C379.91 84.2023 380.031 84.4646 380.263 84.6537C380.496 84.8343 380.811 84.9246 381.207 84.9246C381.595 84.9246 381.906 84.8343 382.138 84.6537C382.38 84.4646 382.505 84.2023 382.513 83.8669H383.418C383.41 84.4259 383.211 84.8601 382.824 85.1697C382.444 85.4793 381.906 85.6341 381.207 85.6341Z" fill="white"/>
</svg>
