<svg width="1366" height="903" viewBox="0 0 1366 903" fill="none" xmlns="http://www.w3.org/2000/svg">
<path d="M819 670.5C866.435 811.17 616.5 1005.5 602.5 803.5C588.5 601.5 412.5 615 299 691.5C208.2 752.7 119.167 615.667 86 539.5C30.6667 409 -23 401.9 -57 539.5M819 670.5C775.5 541.5 836.5 759 819 670.5ZM819 670.5C801.5 582 854 402 1016 419.5C1178 437 1223.5 351 1181.5 320C1139.5 289 1001.5 355 996.5 280C991.5 205 1014.5 55 1173 100.5C1331.5 146 1361.5 40.5 1389.5 2" stroke="white" stroke-opacity="0.85" stroke-width="4"/>
<circle cx="12" cy="12" r="12" transform="matrix(-1 0 0 1 232.5 690.5)" fill="#A00F33"/>
<circle cx="12" cy="12" r="12" transform="matrix(-1 0 0 1 679.5 878.5)" fill="#A00F33"/>
<circle cx="12" cy="12" r="12" transform="matrix(-1 0 0 1 981.5 407.5)" fill="#A00F33"/>
<circle cx="12" cy="12" r="12" transform="matrix(-1 0 0 1 1196.5 310.5)" fill="#A00F33"/>
<circle cx="12" cy="12" r="12" transform="matrix(-1 0 0 1 1120.5 78.5)" fill="#A00F33"/>
<path d="M1129.81 697.192C1160.57 697.192 1185.5 722.127 1185.5 752.885C1185.5 783.643 1160.57 808.577 1129.81 808.577C1099.05 808.577 1074.12 783.643 1074.12 752.885C1074.12 722.127 1099.05 697.192 1129.81 697.192Z" stroke="white" stroke-width="4"/>
<circle cx="1059.04" cy="752.884" r="64.6154" fill="#A00F33"/>
<path d="M1029.04 669.5C1067.44 669.5 1098.58 700.633 1098.58 739.038C1098.58 777.443 1067.44 808.577 1029.04 808.577C990.633 808.577 959.5 777.443 959.5 739.038C959.5 700.633 990.633 669.5 1029.04 669.5Z" stroke="white" stroke-width="4"/>
<path d="M1104.92 703C1101.5 705 1094.73 707.462 1093.5 713" stroke="white" stroke-width="4"/>
<path d="M1103.5 802C1099 800 1085.27 787.961 1084.04 782.115" stroke="white" stroke-width="4"/>
<circle cx="249.615" cy="224.615" r="64.6154" fill="#A00F33"/>
<circle cx="218.358" cy="227.358" r="2.35821" fill="white"/>
<circle cx="243.119" cy="227.358" r="2.35821" fill="white"/>
<circle cx="267.881" cy="227.358" r="2.35821" fill="white"/>
<circle cx="292.641" cy="227.358" r="2.35821" fill="white"/>
<circle cx="317.358" cy="227.358" r="2.35821" fill="white"/>
<circle cx="342.119" cy="227.358" r="2.35821" fill="white"/>
<circle cx="366.881" cy="227.358" r="2.35821" fill="white"/>
<circle cx="391.641" cy="227.358" r="2.35821" fill="white"/>
<circle cx="168.358" cy="207.358" r="2.35821" fill="white"/>
<circle cx="193.119" cy="207.358" r="2.35821" fill="white"/>
<circle cx="217.881" cy="207.358" r="2.35821" fill="white"/>
<circle cx="242.641" cy="207.358" r="2.35821" fill="white"/>
<circle cx="267.358" cy="207.358" r="2.35821" fill="white"/>
<circle cx="292.119" cy="207.358" r="2.35821" fill="white"/>
<circle cx="316.881" cy="207.358" r="2.35821" fill="white"/>
<circle cx="341.641" cy="207.358" r="2.35821" fill="white"/>
</svg>
