<svg width="38" height="37" viewBox="0 0 38 37" fill="none" xmlns="http://www.w3.org/2000/svg">
<path d="M27.835 1.31836C29.3639 1.31836 30.5 2.46398 30.5 4C30.5 4.87975 30.2064 5.4851 29.7646 5.87598C29.3138 6.27478 28.6515 6.5 27.835 6.5C27.0335 6.49992 26.4673 6.25906 26.0996 5.87793C25.7294 5.49397 25.5 4.90439 25.5 4.09277C25.5001 3.2786 25.7316 2.57928 26.127 2.09375C26.5137 1.61895 27.0797 1.31846 27.835 1.31836Z" stroke="#171F29"/>
<circle cx="27.831" cy="3.78509" r="3.28509" stroke="#CA0F3E"/>
<path d="M28.6624 17.4556C26.4388 17.4556 25.5978 15.4894 25.4553 14.5064L23.9587 18.9301C25.8829 19.7727 29.3038 21.0367 28.8762 22.7219C28.4486 24.4072 26.5243 30.3056 23.9587 31.7802C21.7351 32.1173 21.6068 30.3759 21.8206 29.463L24.3862 23.5646L22.0344 22.5113L18.1859 30.727C17.6157 32.4122 16.0477 35.6564 14.3373 35.1508C12.6269 34.6452 13.0545 32.6931 13.4821 31.7802L22.4619 12.189H20.1101C19.2548 14.085 17.7582 17.6661 16.0478 18.0875C13.6531 17.9189 13.9097 16.0512 14.3373 15.1383C15.05 13.6637 16.6037 10.4616 17.1168 9.45047C17.6299 8.43931 18.231 8.18652 18.3996 8.18652H24.3862C26.7809 8.18652 27.2109 9.23981 27.5933 9.87179L29.3038 13.6637H33.3661C34.3639 13.5233 36.4449 13.6216 36.787 15.1383C37.1291 16.6551 35.7893 17.3151 35.0766 17.4556H28.6624Z" stroke="#171F29" stroke-width="2"/>
<path d="M28.6754 17.3671C26.3598 17.3671 25.484 15.289 25.3356 14.25L23.7771 18.9256C25.7809 19.8162 29.3433 21.1521 28.8981 22.9333C28.4528 24.7146 26.4489 30.9488 23.7771 32.5074C21.4615 32.8636 21.3279 31.023 21.5505 30.0582L24.2223 23.8239L21.7732 22.7107L17.7654 31.3941C17.1717 33.1754 15.5389 36.6042 13.7577 36.0698C11.9765 35.5355 12.4217 33.4722 12.867 32.5074L22.2184 11.8007H19.7692C18.8786 13.8046 17.3201 17.5897 15.5389 18.035C13.0452 17.8569 13.3123 15.8827 13.7577 14.918C14.4998 13.3594 16.1178 9.97496 16.6521 8.90623C17.1865 7.8375 17.8124 7.57031 17.9881 7.57031H24.2223C26.716 7.57031 27.1638 8.68358 27.5621 9.35153L29.3433 13.3594H33.5737C34.6128 13.211 36.7799 13.3149 37.1362 14.918C37.4924 16.5211 36.0971 17.2187 35.355 17.3671H28.6754Z" stroke="#CA0F3E"/>
<rect x="0.222653" y="18.0352" width="11.1326" height="0.445305" rx="0.222653" stroke="#CA0F3E" stroke-width="0.445305"/>
<rect x="2.89453" y="14.918" width="8.4608" height="0.445305" rx="0.222653" stroke="#CA0F3E" stroke-width="0.445305"/>
<rect x="5.5664" y="21.1523" width="8.9061" height="0.445305" rx="0.222653" stroke="#CA0F3E" stroke-width="0.445305"/>
</svg>
