<svg width="1366" height="249" fill="none" xmlns="http://www.w3.org/2000/svg"><path d="M-61 170c20.167-28.667 78.3-82.1 149.5-66.5C177.5 123 225 228.5 319 184c62.333-50 216.7-120 335.5 0 118.8 120 254.167 40.666 307-14 52.17-64.667 192-159.4 334-21s231.83 57.667 259 0" stroke="#A00F33" stroke-width="3"/><path d="M1582.5 94.228c-20.17-28.666-78.3-82.1-149.5-66.5-89 19.5-140.5 155.272-234.5 110.772-78.5-40.5-216.7-120-335.5 0-118.8 120-250.167 10.395-303-44.272-52.167-64.666-192-159.4-334-21S-25.833 68.167-53 10.5" stroke="#A00F33" stroke-width="3"/></svg>