<svg width="683" height="644" fill="none" xmlns="http://www.w3.org/2000/svg"><path d="M-150.814 148.294C-88.583 178.103 22.824 259.661-29.406 347.42c-65.288 109.699-114.038 156.907 8.577 264.363 122.616 107.455 280.061 195.183 220.197 366.87M-19.242 49.831C47.97 64.891 173.086 120.88 135.86 224.36c-46.533 129.353-53.176 106.155-6.602 171.997 46.574 65.841 205.024 83.92 176.648 201.746-28.376 117.826 10.489 172.63 67.405 247.149s16.425 102.55-30.829 142.53" stroke="#fff"/><path d="M-144.4 143.428c32.835 14.912 80.135 44.094 106.078 82.436 25.5 39.575 39.274 78.784 16.62 123.709-28.871 55.373-48.478 93.593-54.612 136.295-6.133 42.703 13.304 82.137 74.403 136.855C117.576 728.61 265.595 813.495 206.33 978.911" stroke="#fff"/><path d="M-138.057 138.646c34.554 14.919 85.745 45.442 108.53 87.041C-7.63 269.75 5.123 305.839-14.07 351.81c-25.099 55.896-35.803 93.109-43.048 139.568-7.246 46.459 13.163 86.662 74.052 142.37 116.359 104.318 254.952 186.361 196.289 345.504" stroke="#fff"/><path d="M-131.749 133.906c36.273 14.927 91.355 46.789 110.981 91.646C-2.471 274.104 9.26 307.072-6.47 354.089c-21.327 56.42-23.128 92.626-31.486 142.841s13.022 91.186 73.703 147.884c113.23 102.75 242.398 181.95 184.335 334.822" stroke="#fff"/><path d="M-125.461 129.191c37.991 14.934 96.964 48.137 113.432 96.25 14.695 53.041 25.406 82.89 13.137 130.952-17.555 56.943-10.453 92.142-19.923 146.113-9.47 53.971 12.882 95.711 73.353 153.399C164.639 757.087 284.382 833.444 226.92 980.044" stroke="#fff"/><path d="M-119.186 124.491c39.71 14.941 102.574 49.485 115.883 100.855 11.094 57.53 20.784 84.258 11.976 133.366-13.783 57.467 2.222 91.658-8.36 149.386-10.583 57.727 12.74 100.236 73.003 158.914 106.973 99.613 217.29 173.127 160.428 313.456" stroke="#fff"/><path d="M-112.92 119.801C-71.49 134.75-4.737 170.634 5.414 225.261c7.492 62.019 16.162 85.626 10.815 135.781-10.01 57.99 14.897 91.174 3.203 152.658-11.694 61.483 12.6 104.76 72.653 164.428C195.93 776.173 296.821 846.845 240.56 980.901" stroke="#fff"/><path d="M-106.66 115.119c43.147 14.956 113.793 52.18 120.785 110.065 3.89 66.507 11.539 86.994 9.654 138.194-6.238 58.514 27.572 90.691 14.766 155.931-12.807 65.24 12.46 109.285 72.303 169.943 100.716 96.477 192.182 164.306 136.521 292.091" stroke="#fff"/><path d="M-100.405 110.442c44.867 14.963 119.403 53.528 123.237 114.669.288 70.997 6.916 88.364 8.492 140.609-2.465 59.037 40.248 90.208 26.33 159.204-13.92 68.996 12.318 113.809 71.953 175.458 97.587 94.908 179.627 159.894 124.567 281.407" stroke="#fff"/><path d="M-94.153 105.769C-47.567 120.74 30.86 160.645 31.535 225.043c-3.313 75.486 2.294 89.732 7.331 143.024 1.307 59.56 52.923 89.723 37.892 162.475-15.03 72.753 12.178 118.335 71.604 180.973 94.459 93.34 167.074 155.483 112.614 270.725" stroke="#fff"/><path d="M-87.904 101.1c48.305 14.978 130.622 56.223 128.14 123.878-6.915 79.975-2.33 91.101 6.17 145.438 5.079 60.084 65.597 89.24 49.454 165.748-16.142 76.509 12.038 122.86 71.254 186.488 91.33 91.771 154.52 151.072 100.661 260.041" stroke="#fff"/><path d="M-81.656 96.433c50.023 14.985 136.232 57.571 130.59 128.483-10.516 84.463-6.951 92.469 5.01 147.852 8.85 60.607 78.272 88.757 61.017 169.021-17.255 80.265 11.897 127.384 70.904 192.002 88.202 90.203 141.966 146.661 88.707 249.359" stroke="#fff"/><path d="M-75.41 91.768c51.74 14.992 141.84 58.918 133.04 133.087-14.117 88.952-11.573 93.838 3.849 150.267 12.623 61.131 90.948 88.273 72.581 172.293-18.367 84.021 11.755 131.909 70.554 197.517 85.072 88.635 129.411 142.25 76.753 238.676" stroke="#fff"/><path d="M-69.166 87.104c53.46 15 147.45 60.266 135.492 137.692-17.72 93.442-16.196 95.207 2.687 152.682 16.396 61.654 103.623 87.789 84.144 175.566-19.479 87.776 11.615 136.433 70.204 203.031 81.944 87.066 116.857 137.839 64.8 227.993" stroke="#fff"/><path d="M-62.923 82.442C-7.743 97.45 90.137 144.056 75.02 224.74c-21.32 97.93-20.818 96.575 1.526 155.096 20.169 62.177 116.298 87.305 95.707 178.838-20.591 91.533 11.475 140.958 69.854 208.546 78.816 85.498 104.304 133.428 52.847 217.31" stroke="#fff"/><path d="M-56.68 77.78C.216 92.797 101.988 140.744 83.713 224.684c-24.923 102.418-25.441 97.943.365 157.509 23.94 62.701 128.973 86.822 107.269 182.112-21.703 95.289 11.334 145.482 69.505 214.06 75.687 83.93 91.749 129.017 40.893 206.627" stroke="#fff"/><path d="M-50.44 73.12C8.177 88.144 113.84 137.43 92.406 224.628c-28.525 106.908-30.064 99.312-.796 159.924 27.713 63.225 141.648 86.339 118.832 185.384-22.815 99.046 11.193 150.007 69.155 219.576 72.559 82.361 79.195 124.605 28.939 195.944" stroke="#fff"/><path d="M-44.2 68.462c60.337 15.03 169.89 65.657 145.298 156.11-32.126 111.397-34.686 100.681-1.957 162.339 31.485 63.748 154.323 85.855 130.395 188.656-23.927 102.802 11.052 154.532 68.805 225.091 69.43 80.792 66.641 120.194 16.986 185.261" stroke="#fff"/><path d="M-37.96 63.803c62.057 15.037 175.5 67.005 147.75 160.717-35.728 115.885-39.308 102.049-3.118 164.753 35.257 64.271 166.998 85.371 141.958 191.929-25.039 106.557 10.912 159.056 68.455 230.605 66.302 79.224 54.087 115.783 5.032 174.578" stroke="#fff"/><path d="M-31.72 59.145c63.774 15.045 181.109 68.353 150.2 165.321-39.33 120.374-43.931 103.417-4.28 167.167 39.03 64.794 179.674 84.887 153.522 195.201-26.152 110.314 10.771 163.581 68.105 236.12C399 900.61 377.36 934.326 328.906 986.849" stroke="#fff"/><path d="M-25.48 54.488c65.492 15.052 186.717 69.7 152.65 169.925-42.931 124.863-48.554 104.786-5.441 169.582 42.802 65.318 192.349 84.403 165.085 198.474-27.264 114.07 10.63 168.105 67.755 241.634 60.044 76.088 28.979 106.961-18.875 153.212" stroke="#fff"/></svg>