<svg width="236" height="247" fill="none" xmlns="http://www.w3.org/2000/svg"><g filter="url(#a)"><path d="M15.086 57.442v165.533c-.013 2.673 1.94 5.029 7.914 6.025-3 2-6.5 2.5-8 6.5-.5-2.167-3-5-7.5-6.5 2.518-.869 7.544-3.285 7.585-6.025V57.442c0-15.5-2.5-45.2 19.5-46 22-.8 127.834-.334 178.001 0 .137.01.272.022.404.037 2.737.142 7.51-1.728 7.51-10.479.638 3.95 3.534 11.323 10.091 10.591.321-.072.626-.122.909-.15a9.095 9.095 0 0 1-.909.15C226.746 12.454 220.5 16.463 220.5 22c-.491-3.435-.5-9.76-7.51-10.521a5.004 5.004 0 0 1-.404-.037c-50.167-.334-156-.8-178 0s-19.5 30.5-19.5 46Z" fill="#A00F33"/><path d="M15.086 222.942v-165.5c0-15.5-2.5-45.2 19.5-46 22-.8 127.833-.334 178 0m-197.5 211.5C15.057 225.628 17 228 23 229c-3 2-6.5 2.5-8 6.5-.5-2.167-3-5-7.5-6.5 2.529-.872 7.586-3.305 7.586-6.058Zm197.5-211.5C215.224 11.794 220.5 10.2 220.5 1c.667 4.128 3.8 11.995 11 10.442-3.667.352-11 4.558-11 10.558-.5-3.5-.5-10-7.914-10.558Z" stroke="#fff" stroke-width="2"/></g><defs><filter id="a" x=".386" y=".841" width="235.325" height="246.117" filterUnits="userSpaceOnUse" color-interpolation-filters="sRGB"><feFlood flood-opacity="0" result="BackgroundImageFix"/><feColorMatrix in="SourceAlpha" values="0 0 0 0 0 0 0 0 0 0 0 0 0 0 0 0 0 0 127 0" result="hardAlpha"/><feOffset dy="4"/><feGaussianBlur stdDeviation="2"/><feComposite in2="hardAlpha" operator="out"/><feColorMatrix values="0 0 0 0 0 0 0 0 0 0 0 0 0 0 0 0 0 0 0.25 0"/><feBlend in2="BackgroundImageFix" result="effect1_dropShadow_25_356"/><feBlend in="SourceGraphic" in2="effect1_dropShadow_25_356" result="shape"/></filter></defs></svg>