<svg width="402" height="500" fill="none" xmlns="http://www.w3.org/2000/svg"><path d="M269.97-191c-25.399 26.722-70.746 90.007-48.945 129.375 27.25 49.21 50.533 10.847 79.9 43.654 29.367 32.807 5.82 118.263 43.919 138.371 38.098 20.107 70.904 29.102 263.776 43.654 192.872 14.551-9.26 234.938 0 276.741M2.489-12.415c-9.79 66.143 24.182 212.609 238.378 269.333 267.745 70.905 158.478 87.573 173.029 154.774 11.641 53.761 100.625 80.606 143.662 87.308" stroke="#fff"/><path d="M262.162-186.156c-24.842 26.894-68.796 89.904-46.663 129.614 27.435 49.285 51.769 13.341 83.244 46.027 32.202 32.879 10.369 116.611 47.65 136.754 37.281 20.143 68.555 29.464 256.393 44.532 187.956 15.615-6.279 230.752 3.897 271.602" stroke="#fff"/><path d="M253.781-180.946c-24.245 27.079-66.699 89.794-44.209 129.871 27.633 49.366 53.097 16.023 86.841 48.58 35.25 32.955 15.26 114.833 51.662 135.015 36.402 20.182 66.028 29.851 248.452 45.475 182.669 16.759-3.074 226.25 8.088 266.076" stroke="#fff"/><path d="M244.828-175.37c-23.604 27.277-64.454 89.675-41.582 130.147 27.845 49.452 54.52 18.892 90.69 51.31 38.514 33.038 20.495 112.932 55.957 133.155 35.461 20.223 63.324 30.266 239.953 46.485 177.011 17.983.357 221.431 12.573 260.162" stroke="#fff"/><path d="M235.309-169.428c-22.922 27.488-62.061 89.55-38.782 130.44 28.071 49.544 56.036 21.951 94.792 54.221 41.991 33.127 26.074 110.905 60.533 131.172 34.459 20.267 60.443 30.709 230.896 47.561 170.981 19.288 4.013 216.297 17.353 253.859" stroke="#fff"/><path d="M225.231-163.12c-22.197 27.713-59.522 89.416-35.81 130.752 28.311 49.642 57.645 25.198 99.147 57.311 45.682 33.22 31.996 108.753 65.391 129.067 33.395 20.314 57.383 31.178 221.281 48.703 164.579 20.673 7.895 210.846 22.428 247.168" stroke="#fff"/><path d="M214.601-156.447c-21.431 27.951-56.835 89.275-32.665 131.083 28.565 49.745 59.346 28.633 103.753 60.58 49.588 33.319 38.263 106.476 70.532 126.84 32.269 20.363 54.146 31.675 211.108 49.912 157.807 22.138 12.001 205.077 27.796 240.088" stroke="#fff"/><path d="M203.427-149.406c-20.623 28.2-54.001 89.125-29.349 131.43 28.833 49.854 61.143 32.257 108.614 64.028 53.707 33.423 44.872 104.075 75.954 124.491 31.081 20.415 50.732 32.199 200.377 51.187 150.662 23.684 16.333 198.994 33.46 232.621" stroke="#fff"/><path d="M191.719-142C171.947-113.537 140.7-53.032 165.86-10.204c29.114 49.968 63.031 36.069 113.726 67.656 58.041 33.533 51.826 101.549 81.658 122.019 29.831 20.471 47.14 32.751 189.089 52.529 143.146 25.309 20.889 192.593 39.417 224.765" stroke="#fff"/><path d="M179.49-134.229c-18.88 28.741-47.89 88.805-22.197 132.18 29.41 50.09 65.014 40.07 119.091 71.464 62.59 33.648 59.123 98.898 87.644 119.426 28.52 20.528 43.37 33.329 177.242 53.936 135.259 27.016 25.672 185.877 45.67 216.521" stroke="#fff"/><path d="M166.754-126.09C148.808-97.06 122.14-37.459 148.391 6.492 178.11 56.707 215.48 50.75 273.1 81.942c67.352 33.768 66.764 96.122 93.911 116.71 27.148 20.588 39.424 33.935 164.838 55.41 127.001 28.802 30.68 178.844 52.216 207.888" stroke="#fff"/><path d="M153.53-117.586c-16.97 29.332-41.191 88.451-14.357 133.002 30.043 50.346 69.259 48.636 130.58 79.616 72.328 33.894 74.748 93.221 100.461 113.872 25.713 20.651 35.299 34.568 151.875 56.95 118.371 30.67 35.912 171.495 59.058 198.868" stroke="#fff"/><path d="M139.839-108.716c-15.951 29.647-37.619 88.263-10.178 133.44 30.381 50.484 71.522 53.202 136.704 83.961 77.518 34.026 83.076 90.195 107.292 110.912 24.217 20.717 30.998 35.228 138.355 58.557 109.37 32.617 41.37 163.829 66.193 189.459" stroke="#fff"/><path d="M125.709-99.48c-14.891 29.975-33.901 88.068-5.827 133.897 30.732 50.626 73.878 57.956 143.08 88.485 82.923 34.162 91.747 87.044 114.406 107.83 22.658 20.785 26.518 35.916 124.277 60.229 99.996 34.645 47.053 155.848 73.622 179.662" stroke="#fff"/><path d="M111.172-89.878C97.383-59.561 81.137-2.014 109.87 44.493c31.097 50.776 76.326 62.899 149.708 93.189 88.542 34.305 100.763 83.769 121.801 104.626 21.039 20.856 21.861 36.63 109.641 61.968 90.252 36.753 52.961 147.549 81.347 169.477" stroke="#fff"/><path d="M96.27-79.91C83.628-49.238 70.25 7.744 99.666 54.954c31.476 50.93 78.869 68.03 156.59 98.072 94.375 34.452 110.121 80.369 129.478 101.299 19.357 20.93 17.026 37.373 94.447 63.774 80.136 38.941 59.095 138.934 89.366 158.903" stroke="#fff"/><path d="M81.054-69.576C69.597-38.537 59.192 17.86 89.317 65.798c31.87 51.09 81.505 73.35 163.724 103.134 100.423 34.606 119.824 76.844 137.438 97.851 17.613 21.007 12.014 38.142 78.695 65.645 69.648 41.211 65.453 130.005 97.679 147.942" stroke="#fff"/><path d="M65.583-58.876C55.354-27.456 48.029 28.332 78.888 77.027c32.276 51.256 84.234 78.857 171.11 108.376 106.684 34.764 129.87 73.194 145.679 94.28 15.808 21.086 6.824 38.938 62.385 67.583 58.79 43.56 72.037 120.757 106.287 136.591" stroke="#fff"/><path d="M49.925-47.81C40.967-15.997 36.826 39.164 68.444 88.64c32.697 51.427 87.057 84.553 178.749 113.796 113.16 34.928 140.261 69.42 154.202 90.588 13.941 21.168 1.457 39.762 45.517 69.587 47.56 45.99 78.847 111.194 115.189 124.853" stroke="#fff"/><path d="M34.153-36.377c-7.646 32.22-8.496 86.731 23.904 137.014 33.133 51.604 89.974 90.438 186.642 119.397 119.85 35.097 150.994 65.519 163.007 86.772 12.013 21.253-4.087 40.613 28.092 71.658 35.958 48.5 85.88 101.314 124.385 112.726" stroke="#fff"/><path d="M18.329-24.58c-6.291 32.64-3.747 86.482 29.463 137.598 33.581 51.787 92.983 96.511 194.786 125.176 126.755 35.272 162.072 61.495 172.094 82.835 10.022 21.34-9.809 41.492 10.108 73.795 23.986 51.09 93.14 91.118 133.877 100.211" stroke="#fff"/></svg>