<svg width="237" height="247" fill="none" xmlns="http://www.w3.org/2000/svg"><g filter="url(#a)"><path d="M221.414 182.058v-165.5l.001-.034c.012-2.672-1.94-5.028-7.915-6.024 3-2 6.5-2.5 8-6.5.5 2.167 3 5 7.5 6.5-2.518.869-7.544 3.285-7.585 6.024l-.001.034v165.5c0 15.5 2.5 45.2-19.5 46-22 .8-127.833.334-178 0a10.12 10.12 0 0 1-.404-.037c-2.737-.142-7.51 1.728-7.51 10.479-.638-3.95-3.534-11.324-10.091-10.591a7.406 7.406 0 0 1-.909.149c.31-.067.613-.116.909-.149C9.754 227.046 16 223.037 16 217.5c.49 3.435.5 9.76 7.51 10.521.14.007.275.02.404.037 50.167.334 156 .8 178 0s19.5-30.5 19.5-46Z" fill="#171F29"/><path d="M221.414 16.558v165.5c0 15.5 2.5 45.2-19.5 46-22 .8-127.833.334-178 0m197.5-211.5c.029-2.686-1.914-5.058-7.914-6.058 3-2 6.5-2.5 8-6.5.5 2.167 3 5 7.5 6.5-2.529.872-7.586 3.305-7.586 6.058Zm-197.5 211.5C21.276 227.706 16 229.3 16 238.5c-.667-4.128-3.8-11.995-11-10.442 3.667-.352 11-4.558 11-10.558.5 3.5.5 10 7.914 10.558Z" stroke="#fff" stroke-width="2"/></g><defs><filter id="a" x=".789" y=".543" width="235.325" height="246.117" filterUnits="userSpaceOnUse" color-interpolation-filters="sRGB"><feFlood flood-opacity="0" result="BackgroundImageFix"/><feColorMatrix in="SourceAlpha" values="0 0 0 0 0 0 0 0 0 0 0 0 0 0 0 0 0 0 127 0" result="hardAlpha"/><feOffset dy="4"/><feGaussianBlur stdDeviation="2"/><feComposite in2="hardAlpha" operator="out"/><feColorMatrix values="0 0 0 0 0 0 0 0 0 0 0 0 0 0 0 0 0 0 0.25 0"/><feBlend in2="BackgroundImageFix" result="effect1_dropShadow_25_357"/><feBlend in="SourceGraphic" in2="effect1_dropShadow_25_357" result="shape"/></filter></defs></svg>