<svg width="1366" height="25" fill="none" xmlns="http://www.w3.org/2000/svg"><path transform="matrix(.85533 .51808 -.9815 .1915 -23.5 1.226)" stroke="#fff" stroke-width="3" d="M0-1.5h45.889"/><path transform="matrix(.85533 .51808 -.9815 .1915 15.75 1.226)" stroke="#fff" stroke-width="3" d="M0-1.5h45.889"/><path transform="matrix(.85533 .51808 -.9815 .1915 55 1)" stroke="#fff" stroke-width="3" d="M0-1.5h45.889"/><path transform="matrix(.85533 .51808 -.9815 .1915 94.25 1)" stroke="#fff" stroke-width="3" d="M0-1.5h45.889"/><path transform="matrix(.85533 .51808 -.9815 .1915 133.5 1)" stroke="#fff" stroke-width="3" d="M0-1.5h45.889"/><path transform="matrix(.85533 .51808 -.9815 .1915 172.75 1)" stroke="#fff" stroke-width="3" d="M0-1.5h45.889"/><path transform="matrix(.85533 .51808 -.9815 .1915 212 1.226)" stroke="#fff" stroke-width="3" d="M0-1.5h45.889"/><path transform="matrix(.85533 .51808 -.9815 .1915 251.25 1.226)" stroke="#fff" stroke-width="3" d="M0-1.5h45.889"/><path transform="matrix(.85533 .51808 -.9815 .1915 290.5 1.226)" stroke="#fff" stroke-width="3" d="M0-1.5h45.889"/><path transform="matrix(.85533 .51808 -.9815 .1915 329.75 1.226)" stroke="#fff" stroke-width="3" d="M0-1.5h45.889"/><path transform="matrix(.85533 .51808 -.9815 .1915 369 1)" stroke="#fff" stroke-width="3" d="M0-1.5h45.889"/><path transform="matrix(.85533 .51808 -.9815 .1915 408.25 1)" stroke="#fff" stroke-width="3" d="M0-1.5h45.889"/><path transform="matrix(.85533 .51808 -.9815 .1915 447.5 1)" stroke="#fff" stroke-width="3" d="M0-1.5h45.889"/><path transform="matrix(.85533 .51808 -.9815 .1915 486.75 1)" stroke="#fff" stroke-width="3" d="M0-1.5h45.889"/><path transform="matrix(.85533 .51808 -.9815 .1915 526 1.226)" stroke="#fff" stroke-width="3" d="M0-1.5h45.889"/><path transform="matrix(.85533 .51808 -.9815 .1915 565.25 1.226)" stroke="#fff" stroke-width="3" d="M0-1.5h45.889"/><path transform="matrix(.85533 .51808 -.9815 .1915 604.5 1.226)" stroke="#fff" stroke-width="3" d="M0-1.5h45.889"/><path transform="matrix(.85533 .51808 -.9815 .1915 643.75 1.226)" stroke="#fff" stroke-width="3" d="M0-1.5h45.889"/><path transform="matrix(.85533 .51808 -.9815 .1915 683 1)" stroke="#fff" stroke-width="3" d="M0-1.5h45.889"/><path transform="matrix(.85533 .51808 -.9815 .1915 722.25 1)" stroke="#fff" stroke-width="3" d="M0-1.5h45.889"/><path transform="matrix(.85533 .51808 -.9815 .1915 761.5 1)" stroke="#fff" stroke-width="3" d="M0-1.5h45.889"/><path transform="matrix(.85533 .51808 -.9815 .1915 800.75 1)" stroke="#fff" stroke-width="3" d="M0-1.5h45.889"/><path transform="matrix(.85533 .51808 -.9815 .1915 840 1.226)" stroke="#fff" stroke-width="3" d="M0-1.5h45.889"/><path transform="matrix(.85533 .51808 -.9815 .1915 879.25 1.226)" stroke="#fff" stroke-width="3" d="M0-1.5h45.889"/><path transform="matrix(.85533 .51808 -.9815 .1915 918.5 1.226)" stroke="#fff" stroke-width="3" d="M0-1.5h45.889"/><path transform="matrix(.85533 .51808 -.9815 .1915 957.75 1.226)" stroke="#fff" stroke-width="3" d="M0-1.5h45.889"/><path transform="matrix(.85533 .51808 -.9815 .1915 997 1)" stroke="#fff" stroke-width="3" d="M0-1.5h45.889"/><path transform="matrix(.85533 .51808 -.9815 .1915 1036.25 1)" stroke="#fff" stroke-width="3" d="M0-1.5h45.889"/><path transform="matrix(.85533 .51808 -.9815 .1915 1075.5 1)" stroke="#fff" stroke-width="3" d="M0-1.5h45.889"/><path transform="matrix(.85533 .51808 -.9815 .1915 1114.75 1)" stroke="#fff" stroke-width="3" d="M0-1.5h45.889"/><path transform="matrix(.85533 .51808 -.9815 .1915 1154 1.226)" stroke="#fff" stroke-width="3" d="M0-1.5h45.889"/><path transform="matrix(.85533 .51808 -.9815 .1915 1193.25 1.226)" stroke="#fff" stroke-width="3" d="M0-1.5h45.889"/><path transform="matrix(.85533 .51808 -.9815 .1915 1232.5 1.226)" stroke="#fff" stroke-width="3" d="M0-1.5h45.889"/><path transform="matrix(.85533 .51808 -.9815 .1915 1271.75 1.226)" stroke="#fff" stroke-width="3" d="M0-1.5h45.889"/><path transform="matrix(.85533 .51808 -.9815 .1915 1311 1)" stroke="#fff" stroke-width="3" d="M0-1.5h45.889"/><path transform="matrix(.85533 .51808 -.9815 .1915 1350.25 1)" stroke="#fff" stroke-width="3" d="M0-1.5h45.889"/></svg>