<svg width="395" height="116" fill="none" xmlns="http://www.w3.org/2000/svg"><path d="M49.04 0 0 8.463v87.755L49.04 116V0Z" fill="#A00F33"/><path d="M57.957 0v16.62l32.616 5.876v18.768H57.957v16.619h32.616v25.646l-32.616 13.11V116l49.04-19.782V8.463L57.957 0Zm79.182 36.208V29.06h24.946v7.148h-24.946Zm6.288-28.177c3.548 0 6.818.624 9.813 1.874 2.994 1.203 5.597 2.938 7.808 5.205 2.257 2.22 3.985 4.858 5.183 7.912 1.244 3.053 1.866 6.385 1.866 9.993 0 3.61-.622 6.94-1.866 9.994-1.198 3.054-2.926 5.715-5.183 7.981-2.211 2.221-4.814 3.956-7.808 5.206-2.995 1.203-6.265 1.804-9.813 1.804-4.1 0-7.832-.694-11.194-2.082-3.317-1.388-6.081-3.4-8.293-6.038l5.667-5.552c1.796 1.943 3.8 3.4 6.012 4.372 2.257.926 4.699 1.388 7.324 1.388 2.304 0 4.446-.416 6.427-1.249 1.981-.879 3.686-2.059 5.114-3.54 1.427-1.526 2.533-3.33 3.316-5.413.784-2.082 1.175-4.372 1.175-6.87 0-2.5-.391-4.79-1.175-6.871-.783-2.082-1.889-3.864-3.316-5.344a14.73 14.73 0 0 0-5.114-3.54c-1.981-.879-4.123-1.318-6.427-1.318-2.625 0-5.067.485-7.324 1.457-2.212.926-4.216 2.36-6.012 4.303l-5.667-5.552c2.212-2.637 4.976-4.65 8.293-6.038 3.362-1.388 7.094-2.082 11.194-2.082Zm46.503 49.275V8.725h7.325l21.214 35.464h-3.939l20.869-35.464h7.325l.138 48.581h-8.568l-.07-35.187h1.797l-17.69 29.635h-4.008l-17.966-29.635h2.073v35.187h-8.5Zm78.285 0V8.725h8.845v34.492l25.982-34.492h8.362v48.581h-8.845V22.883l-25.983 34.423h-8.361Zm78.656 0V14.138l2.143 2.221h-18.105V8.725h40.908v7.634h-18.104l2.073-2.22v43.167h-8.915ZM123.94 79.71v-9.03h1.281v6.965l5.353-6.965h1.189v9.03h-1.267v-6.953l-5.366 6.952h-1.19Zm17.136-9.03h1.293v9.03h-1.293v-9.03Zm-5.198 9.03h-1.293v-9.03h1.293v9.03Zm5.314-4.025h-5.443v-1.122h5.443v1.122Zm8.047 4.127c-.69 0-1.328-.111-1.914-.335a4.699 4.699 0 0 1-1.513-.967 4.593 4.593 0 0 1-1.357-3.315c0-.671.12-1.286.362-1.845a4.417 4.417 0 0 1 1.008-1.457 4.419 4.419 0 0 1 1.513-.968 5.15 5.15 0 0 1 1.914-.348c.698 0 1.34.12 1.926.361.595.232 1.099.58 1.513 1.045l-.84.813a3.286 3.286 0 0 0-1.164-.8 3.543 3.543 0 0 0-1.384-.271c-.508 0-.982.086-1.422.258a3.322 3.322 0 0 0-1.875 1.832 3.618 3.618 0 0 0-.258 1.38c0 .498.086.963.258 1.393a3.356 3.356 0 0 0 1.875 1.819c.44.171.914.257 1.422.257a3.7 3.7 0 0 0 1.384-.258 3.35 3.35 0 0 0 1.164-.825l.84.813a4.013 4.013 0 0 1-1.513 1.057 5.055 5.055 0 0 1-1.939.361Zm6.981-.103v-8.242l.324.335h-3.414V70.68h7.461v1.122h-3.414l.311-.335v8.242h-1.268Zm5.942 0V70.68h1.28v6.965l5.354-6.965h1.189v9.03h-1.267v-6.953l-5.366 6.952h-1.19Zm12.494 0v-8.242l.323.335h-3.413V70.68h7.461v1.122h-3.414l.31-.335v8.242h-1.267Zm5.525-1.135c.448.163.862.207 1.241.13.38-.087.72-.375 1.022-.865l.439-.697.13-.141 3.323-6.32h1.28l-4.021 7.429c-.302.567-.655.997-1.061 1.29a2.411 2.411 0 0 1-1.293.464 2.916 2.916 0 0 1-1.396-.258l.336-1.032Zm2.793-.425-3.97-7.469h1.384l3.297 6.437-.711 1.031Zm7.921 1.56v-8.242l.323.335h-3.414V70.68h7.461v1.122h-3.413l.31-.335v8.242h-1.267Zm10.746-4.063v-1.058h4.849v1.058h-4.849Zm1.163-5.07c.656 0 1.259.117 1.811.35a4.11 4.11 0 0 1 1.435.967c.414.412.733.898.957 1.457.232.56.349 1.174.349 1.845 0 .67-.117 1.285-.349 1.844a4.423 4.423 0 0 1-.957 1.47 4.357 4.357 0 0 1-1.435.968 4.777 4.777 0 0 1-1.811.335c-.724 0-1.392-.12-2.004-.36a3.987 3.987 0 0 1-1.525-1.058l.814-.813c.362.37.763.64 1.203.813.448.171.931.257 1.448.257a3.34 3.34 0 0 0 1.319-.257 3.175 3.175 0 0 0 1.047-.71 3.23 3.23 0 0 0 .698-1.096 3.88 3.88 0 0 0 .246-1.393c0-.5-.082-.96-.246-1.38a3.066 3.066 0 0 0-.698-1.097 3.082 3.082 0 0 0-1.047-.722 3.34 3.34 0 0 0-1.319-.258c-.517 0-1 .086-1.448.258a3.43 3.43 0 0 0-1.203.812l-.814-.812a3.985 3.985 0 0 1 1.525-1.058 5.426 5.426 0 0 1 2.004-.361Zm12.737 9.133-3.284-4.45 1.047-.645 3.711 5.095h-1.474Zm-6.09 0V70.68h1.267v9.03h-1.267Zm.879-3.973v-1.135h2.935v1.135h-2.935Zm3.091-.4-1.19-.18 3.246-4.476h1.383l-3.439 4.656Zm8.967 4.476a5.25 5.25 0 0 1-1.926-.348 4.653 4.653 0 0 1-1.526-.967 4.58 4.58 0 0 1-1.009-1.47 4.577 4.577 0 0 1-.362-1.832c0-.662.121-1.273.362-1.832a4.434 4.434 0 0 1 1.009-1.457 4.548 4.548 0 0 1 1.526-.98 5.183 5.183 0 0 1 1.926-.35c.69 0 1.323.117 1.901.35a4.398 4.398 0 0 1 1.526.967 4.17 4.17 0 0 1 1.008 1.457c.242.56.362 1.174.362 1.845 0 .67-.12 1.285-.362 1.844a4.31 4.31 0 0 1-1.008 1.47c-.431.413-.94.736-1.526.968a5.224 5.224 0 0 1-1.901.335Zm0-1.148c.5 0 .961-.086 1.384-.258a3.276 3.276 0 0 0 1.849-1.831 3.46 3.46 0 0 0 .271-1.38c0-.5-.09-.96-.271-1.38a3.204 3.204 0 0 0-.737-1.097 3.183 3.183 0 0 0-1.112-.735 3.639 3.639 0 0 0-1.384-.258c-.508 0-.978.086-1.409.258a3.337 3.337 0 0 0-1.112.735c-.319.31-.569.675-.75 1.096a3.6 3.6 0 0 0-.259 1.38c0 .5.086.96.259 1.38.181.422.431.792.75 1.11.319.31.689.55 1.112.722a3.77 3.77 0 0 0 1.409.258Zm13.379-7.984h1.293v9.03h-1.293v-9.03Zm-5.198 9.03h-1.293v-9.03h1.293v9.03Zm5.314-4.025h-5.444v-1.122h5.444v1.122Zm8.072 4.127a5.25 5.25 0 0 1-1.926-.348 4.653 4.653 0 0 1-1.526-.967 4.58 4.58 0 0 1-1.009-1.47 4.577 4.577 0 0 1-.362-1.832c0-.662.121-1.273.362-1.832a4.434 4.434 0 0 1 1.009-1.457 4.548 4.548 0 0 1 1.526-.98 5.183 5.183 0 0 1 1.926-.35c.69 0 1.323.117 1.901.35a4.398 4.398 0 0 1 1.526.967c.439.412.775.898 1.008 1.457.242.56.362 1.174.362 1.845 0 .67-.12 1.285-.362 1.844a4.323 4.323 0 0 1-1.008 1.47c-.431.413-.94.736-1.526.968a5.224 5.224 0 0 1-1.901.335Zm0-1.148c.5 0 .961-.086 1.384-.258a3.276 3.276 0 0 0 1.849-1.831 3.46 3.46 0 0 0 .271-1.38c0-.5-.09-.96-.271-1.38a3.204 3.204 0 0 0-.737-1.097 3.183 3.183 0 0 0-1.112-.735 3.639 3.639 0 0 0-1.384-.258c-.508 0-.978.086-1.409.258a3.337 3.337 0 0 0-1.112.735c-.319.31-.569.675-.75 1.096a3.6 3.6 0 0 0-.259 1.38c0 .5.086.96.259 1.38.181.422.431.792.75 1.11.319.31.689.55 1.112.722a3.77 3.77 0 0 0 1.409.258Zm6.888 1.045V70.68h1.06l4.06 6.823h-.569l4.008-6.823h1.061l.013 9.03h-1.242l-.013-7.082h.298l-3.569 5.985h-.595l-3.594-5.985h.323v7.081h-1.241Zm12.45 0V70.68h1.28v6.965l5.353-6.965h1.189v9.03h-1.267v-6.953l-5.366 6.952h-1.189Zm16.734 0-3.284-4.45 1.048-.645 3.711 5.095h-1.475Zm-6.09 0V70.68h1.268v9.03h-1.268Zm.88-3.973v-1.135h2.935v1.135h-2.935Zm3.09-.4-1.19-.18 3.246-4.476h1.383l-3.439 4.656Zm4.92 4.373V70.68h1.28v6.965l5.353-6.965h1.19v9.03h-1.268v-6.953l-5.366 6.952h-1.189Zm9.92 1.91.647-2.606.168.748a.912.912 0 0 1-.633-.232c-.164-.155-.246-.366-.246-.632 0-.258.082-.47.246-.632a.869.869 0 0 1 .62-.246.78.78 0 0 1 .608.258c.155.164.233.37.233.62 0 .086-.009.172-.026.258-.009.077-.03.172-.065.283a3.448 3.448 0 0 1-.129.387l-.608 1.793h-.815Zm7.127-1.91V70.68h1.06l4.06 6.823h-.569l4.008-6.823h1.061l.013 9.03h-1.242l-.013-7.082h.298l-3.569 5.985h-.595l-3.594-5.985h.323v7.081h-1.241Zm11.195 0 4.099-9.029h1.28l4.112 9.03h-1.358l-3.659-8.308h.517l-3.659 8.307h-1.332Zm1.746-2.257.349-1.032h5.095l.375 1.032h-5.819Zm10.702 2.257v-8.242l.323.335h-3.413V70.68h7.46v1.122h-3.413l.31-.335v8.242h-1.267Zm7.118-5.133h4.655v1.096h-4.655v-1.096Zm.117 4.011h5.275v1.122h-6.568V70.68h6.387v1.122h-5.094v6.785Zm7.306 1.122V70.68h1.06l4.06 6.823h-.569l4.009-6.823h1.06l.013 9.03h-1.241l-.013-7.082h.297l-3.569 5.985h-.595l-3.594-5.985h.323v7.081h-1.241Zm11.196 0 4.099-9.029h1.28l4.111 9.03h-1.357l-3.659-8.308h.517l-3.659 8.307h-1.332Zm1.745-2.257.349-1.032h5.095l.375 1.032h-5.819Zm10.702 2.257v-8.242l.323.335h-3.413V70.68h7.461v1.122h-3.414l.31-.335v8.242h-1.267Zm5.942 0V70.68h1.28v6.965l5.353-6.965h1.19v9.03h-1.267v-6.953l-5.366 6.952h-1.19Zm16.735 0-3.284-4.45 1.047-.645 3.711 5.095h-1.474Zm-6.09 0V70.68h1.267v9.03h-1.267Zm.879-3.973v-1.135h2.935v1.135h-2.935Zm3.09-.4-1.189-.18 3.245-4.476h1.384l-3.44 4.656Zm4.92 4.373V70.68h1.28v6.965l5.353-6.965H395v9.03h-1.267v-6.953l-5.366 6.952h-1.19ZM123.94 95.295v-9.029h1.281v6.965l5.353-6.965h1.189v9.03h-1.267v-6.953l-5.366 6.952h-1.19Zm14.117 0v-9.029h1.281v6.965l5.353-6.965h1.189v9.03h-1.267v-6.953l-5.366 6.952h-1.19Zm17.136-9.029h1.293v9.03h-1.293v-9.03Zm-5.198 9.03h-1.293v-9.03h1.293v9.03Zm5.314-4.025h-5.443v-1.122h5.443v1.122Zm8.422 3.418c-1.104 0-2.048-.15-2.832-.451-.784-.31-1.383-.757-1.797-1.342-.414-.585-.621-1.294-.621-2.128 0-.834.207-1.544.621-2.129.414-.584 1.013-1.031 1.797-1.341.784-.31 1.728-.464 2.832-.464h.323c1.103 0 2.043.154 2.819.464.784.31 1.383.757 1.797 1.341.414.585.621 1.295.621 2.129 0 .825-.207 1.535-.621 2.128-.405.585-.996 1.032-1.771 1.341-.768.302-1.699.452-2.793.452h-.375Zm.142-1.006h.103c.88-.009 1.621-.12 2.224-.336.604-.223 1.061-.55 1.371-.98.319-.438.478-.976.478-1.612 0-.628-.159-1.157-.478-1.587-.319-.43-.78-.756-1.384-.98-.594-.224-1.323-.335-2.185-.335h-.129c-.888 0-1.642.111-2.263.335-.612.215-1.077.537-1.396.967-.319.43-.479.968-.479 1.613s.164 1.182.492 1.612c.327.43.797.757 1.409.98.621.215 1.366.323 2.237.323Zm-.582 1.948v-9.7h1.203v9.7h-1.203Zm12.061-.233a5.25 5.25 0 0 1-1.926-.348 4.653 4.653 0 0 1-1.526-.967 4.58 4.58 0 0 1-1.009-1.47 4.577 4.577 0 0 1-.362-1.832c0-.663.121-1.273.362-1.832a4.434 4.434 0 0 1 1.009-1.457 4.548 4.548 0 0 1 1.526-.98 5.183 5.183 0 0 1 1.926-.35c.69 0 1.323.117 1.901.35a4.398 4.398 0 0 1 1.526.967 4.17 4.17 0 0 1 1.008 1.457c.242.56.362 1.174.362 1.845 0 .67-.12 1.285-.362 1.844a4.31 4.31 0 0 1-1.008 1.47c-.431.413-.94.736-1.526.968a5.224 5.224 0 0 1-1.901.335Zm0-1.148c.5 0 .961-.086 1.384-.258a3.274 3.274 0 0 0 1.849-1.831 3.46 3.46 0 0 0 .271-1.38c0-.5-.09-.96-.271-1.38a3.204 3.204 0 0 0-.737-1.097 3.182 3.182 0 0 0-1.112-.735 3.639 3.639 0 0 0-1.384-.258c-.508 0-.978.086-1.409.258a3.336 3.336 0 0 0-1.112.735c-.319.31-.569.675-.75 1.096a3.6 3.6 0 0 0-.259 1.38c0 .5.086.96.259 1.38.181.422.431.792.75 1.11.319.31.689.55 1.112.722.431.172.901.258 1.409.258Zm6.888 1.045v-9.029h3.53c.793 0 1.469.125 2.03.374.56.25.991.61 1.293 1.084.301.473.452 1.036.452 1.69 0 .653-.151 1.216-.452 1.69-.302.463-.733.825-1.293 1.083-.561.249-1.237.374-2.03.374h-2.819l.582-.607v3.341h-1.293Zm1.293-3.212-.582-.644h2.78c.827 0 1.452-.177 1.875-.53.431-.352.646-.85.646-1.496 0-.644-.215-1.143-.646-1.496-.423-.352-1.048-.529-1.875-.529h-2.78l.582-.645v5.34Zm7.811 3.212v-9.029h1.06l4.06 6.823h-.569l4.008-6.823h1.061l.012 9.03h-1.241l-.013-7.082h.298l-3.569 5.985h-.595l-3.594-5.985h.323v7.081h-1.241Zm11.196 0 4.099-9.029h1.28l4.112 9.03h-1.358l-3.659-8.308h.517l-3.659 8.307h-1.332Zm1.746-2.257.349-1.032h5.094l.375 1.032h-5.818Zm9.306 2.257v-9.029h1.281v7.907h5.042v-7.907h1.28v9.03h-7.603Zm7.797 2.051V94.96l.311.335h-1.785v-1.122h2.677v3.173h-1.203Zm2.924-2.05v-9.03h1.28v6.965l5.353-6.965h1.19v9.03h-1.267v-6.953l-5.366 6.952h-1.19Zm14.718.102c-.69 0-1.332-.116-1.927-.348a4.66 4.66 0 0 1-1.525-.967 4.564 4.564 0 0 1-1.009-1.47 4.577 4.577 0 0 1-.362-1.832c0-.663.121-1.273.362-1.832a4.42 4.42 0 0 1 1.009-1.457 4.554 4.554 0 0 1 1.525-.98 5.188 5.188 0 0 1 1.927-.35c.69 0 1.323.117 1.901.35a4.394 4.394 0 0 1 1.525.967c.44.412.776.898 1.009 1.457a4.61 4.61 0 0 1 .362 1.845 4.61 4.61 0 0 1-.362 1.844 4.312 4.312 0 0 1-1.009 1.47 4.657 4.657 0 0 1-1.525.968 5.224 5.224 0 0 1-1.901.335Zm0-1.148c.5 0 .961-.086 1.383-.258a3.264 3.264 0 0 0 1.849-1.831 3.46 3.46 0 0 0 .272-1.38 3.46 3.46 0 0 0-.272-1.38 3.19 3.19 0 0 0-.737-1.097 3.173 3.173 0 0 0-1.112-.735 3.63 3.63 0 0 0-1.383-.258c-.509 0-.978.086-1.409.258a3.326 3.326 0 0 0-1.112.735c-.319.31-.569.675-.75 1.096a3.6 3.6 0 0 0-.259 1.38c0 .5.086.96.259 1.38.181.422.431.792.75 1.11.318.31.689.55 1.112.722.431.172.9.258 1.409.258Zm13.378-7.984h1.293v9.03h-1.293v-9.03Zm-5.198 9.03h-1.293v-9.03h1.293v9.03Zm5.314-4.025h-5.443v-1.122h5.443v1.122Zm10.491-5.005h1.293v9.03h-1.293v-9.03Zm-5.198 9.03h-1.293v-9.03h1.293v9.03Zm5.314-4.025h-5.443v-1.122h5.443v1.122Zm7.969-1.858c1.069 0 1.892.241 2.469.723.578.473.867 1.182.867 2.128 0 .998-.315 1.754-.944 2.27-.621.508-1.496.761-2.625.761h-3.737v-9.029h1.28v3.147h2.69Zm-.285 4.863c.75 0 1.324-.167 1.72-.503.405-.335.608-.83.608-1.483 0-.637-.198-1.105-.595-1.406-.397-.301-.974-.452-1.733-.452h-2.405v3.844h2.405Zm5.056 1.02v-9.03h1.28v9.03h-1.28Zm3.131-9.03h1.487l2.366 3.302 2.367-3.302h1.512l-3.064 4.334 3.31 4.695h-1.526l-2.599-3.599-2.586 3.6h-1.487l3.298-4.644-3.078-4.386Zm14.929 9.03v-8.243l.323.335h-3.414v-1.122h7.461v1.122h-3.413l.31-.335v8.242h-1.267Zm7.118-5.135h4.655v1.097h-4.655v-1.096Zm.117 4.012h5.275v1.122h-6.568v-9.029h6.387v1.122h-5.094v6.785Zm6.235-7.907h1.487l2.366 3.302 2.366-3.302h1.513l-3.065 4.334 3.311 4.695h-1.526l-2.599-3.599-2.586 3.6h-1.487l3.297-4.644-3.077-4.386Zm15.794 0h1.293v9.03h-1.293v-9.03Zm-5.198 9.03h-1.293v-9.03h1.293v9.03Zm5.315-4.025h-5.444v-1.122h5.444v1.122Zm8.072 4.127c-.69 0-1.332-.116-1.927-.348a4.674 4.674 0 0 1-1.526-.967 4.561 4.561 0 0 1-1.008-1.47 4.577 4.577 0 0 1-.362-1.832c0-.663.121-1.273.362-1.832a4.417 4.417 0 0 1 1.008-1.457 4.54 4.54 0 0 1 1.526-.98 5.188 5.188 0 0 1 1.927-.35 5.04 5.04 0 0 1 1.901.35 4.394 4.394 0 0 1 1.525.967c.44.412.776.898 1.009 1.457a4.61 4.61 0 0 1 .362 1.845 4.61 4.61 0 0 1-.362 1.844 4.312 4.312 0 0 1-1.009 1.47 4.657 4.657 0 0 1-1.525.968 5.228 5.228 0 0 1-1.901.335Zm0-1.148c.5 0 .961-.086 1.383-.258a3.264 3.264 0 0 0 1.849-1.831 3.46 3.46 0 0 0 .272-1.38 3.46 3.46 0 0 0-.272-1.38 3.19 3.19 0 0 0-.737-1.097 3.173 3.173 0 0 0-1.112-.735 3.63 3.63 0 0 0-1.383-.258 3.77 3.77 0 0 0-1.41.258 3.346 3.346 0 0 0-1.112.735c-.318.31-.568.675-.749 1.096a3.6 3.6 0 0 0-.259 1.38c0 .5.086.96.259 1.38.181.422.431.792.749 1.11.319.31.69.55 1.112.722a3.77 3.77 0 0 0 1.41.258Zm6.208 1.148a2.94 2.94 0 0 1-.388-.025 5.099 5.099 0 0 1-.427-.078l.091-1.148c.138.035.276.052.414.052.379 0 .681-.15.905-.452.224-.3.388-.756.491-1.367.112-.61.185-1.38.22-2.309l.142-3.805h6.375v9.03h-1.268v-8.243l.311.335h-4.59l.284-.348-.103 2.992a21.654 21.654 0 0 1-.181 2.348c-.095.67-.237 1.23-.427 1.677-.19.447-.435.782-.737 1.006-.293.224-.664.335-1.112.335Zm14.715 0c-.69 0-1.332-.116-1.927-.348a4.66 4.66 0 0 1-1.525-.967 4.564 4.564 0 0 1-1.009-1.47 4.577 4.577 0 0 1-.362-1.832c0-.663.121-1.273.362-1.832a4.42 4.42 0 0 1 1.009-1.457 4.554 4.554 0 0 1 1.525-.98 5.188 5.188 0 0 1 1.927-.35c.69 0 1.323.117 1.901.35a4.394 4.394 0 0 1 1.525.967c.44.412.776.898 1.009 1.457a4.61 4.61 0 0 1 .362 1.845 4.61 4.61 0 0 1-.362 1.844 4.312 4.312 0 0 1-1.009 1.47 4.657 4.657 0 0 1-1.525.968 5.224 5.224 0 0 1-1.901.335Zm0-1.148c.5 0 .961-.086 1.383-.258a3.264 3.264 0 0 0 1.849-1.831 3.46 3.46 0 0 0 .272-1.38 3.46 3.46 0 0 0-.272-1.38 3.19 3.19 0 0 0-.737-1.097 3.173 3.173 0 0 0-1.112-.735 3.63 3.63 0 0 0-1.383-.258c-.509 0-.978.086-1.409.258a3.326 3.326 0 0 0-1.112.735c-.319.31-.569.675-.75 1.096a3.6 3.6 0 0 0-.259 1.38c0 .5.086.96.259 1.38.181.422.431.792.75 1.11.318.31.689.55 1.112.722.431.172.9.258 1.409.258Zm6.887 1.045v-9.029h5.935l-.013 1.122h-4.965l.311-.322.012 8.23h-1.28Zm7.476 0v-9.029h1.28v6.965l5.353-6.965h1.189v9.03h-1.267v-6.953l-5.366 6.952h-1.189Zm10.644 0v-9.029h1.28v6.965l5.353-6.965h1.19v9.03h-1.267v-6.953l-5.366 6.952h-1.19Zm3.892-9.66c-.707 0-1.254-.156-1.642-.465-.379-.31-.573-.744-.582-1.303h.918c.009.335.13.598.362.787.233.18.548.27.944.27.388 0 .699-.09.931-.27.242-.19.367-.452.375-.787h.905c-.008.559-.207.993-.594 1.303-.38.31-.918.464-1.617.464Z" fill="#fff"/></svg>