<svg width="1366" height="249" viewBox="0 0 1366 249" fill="none" xmlns="http://www.w3.org/2000/svg">
<path d="M-61 170C-40.8333 141.333 17.3 87.8997 88.5 103.5C177.5 123 225 228.5 319 184C381.333 134 535.7 63.9998 654.5 184C773.3 304 908.667 224.666 961.5 170C1013.67 105.333 1153.5 10.5998 1295.5 149C1437.5 287.4 1527.33 206.667 1554.5 149" stroke="#A00F33" stroke-width="3"/>
<path d="M1582.5 94.2282C1562.33 65.5616 1504.2 12.1286 1433 27.7286C1344 47.2286 1292.5 183 1198.5 138.5C1120 98 981.8 18.5 863 138.5C744.2 258.5 612.833 148.895 560 94.2282C507.833 29.5616 368 -65.1716 226 73.2283C84 211.628 -25.8333 68.1669 -53 10.5002" stroke="#A00F33" stroke-width="3"/>
</svg>
