<svg width="1366" height="25" viewBox="0 0 1366 25" fill="none" xmlns="http://www.w3.org/2000/svg">
<line y1="-1.5" x2="45.8886" y2="-1.5" transform="matrix(0.855333 0.518079 -0.981491 0.191506 -23.5 1.22607)" stroke="white" stroke-width="3"/>
<line y1="-1.5" x2="45.8886" y2="-1.5" transform="matrix(0.855333 0.518079 -0.981491 0.191506 15.75 1.22607)" stroke="white" stroke-width="3"/>
<line y1="-1.5" x2="45.8886" y2="-1.5" transform="matrix(0.855333 0.518079 -0.981491 0.191506 55 1)" stroke="white" stroke-width="3"/>
<line y1="-1.5" x2="45.8886" y2="-1.5" transform="matrix(0.855333 0.518079 -0.981491 0.191506 94.25 1)" stroke="white" stroke-width="3"/>
<line y1="-1.5" x2="45.8886" y2="-1.5" transform="matrix(0.855333 0.518079 -0.981491 0.191506 133.5 1)" stroke="white" stroke-width="3"/>
<line y1="-1.5" x2="45.8886" y2="-1.5" transform="matrix(0.855333 0.518079 -0.981491 0.191506 172.75 1)" stroke="white" stroke-width="3"/>
<line y1="-1.5" x2="45.8886" y2="-1.5" transform="matrix(0.855333 0.518079 -0.981491 0.191506 212 1.22607)" stroke="white" stroke-width="3"/>
<line y1="-1.5" x2="45.8886" y2="-1.5" transform="matrix(0.855333 0.518079 -0.981491 0.191506 251.25 1.22607)" stroke="white" stroke-width="3"/>
<line y1="-1.5" x2="45.8886" y2="-1.5" transform="matrix(0.855333 0.518079 -0.981491 0.191506 290.5 1.22607)" stroke="white" stroke-width="3"/>
<line y1="-1.5" x2="45.8886" y2="-1.5" transform="matrix(0.855333 0.518079 -0.981491 0.191506 329.75 1.22607)" stroke="white" stroke-width="3"/>
<line y1="-1.5" x2="45.8886" y2="-1.5" transform="matrix(0.855333 0.518079 -0.981491 0.191506 369 1)" stroke="white" stroke-width="3"/>
<line y1="-1.5" x2="45.8886" y2="-1.5" transform="matrix(0.855333 0.518079 -0.981491 0.191506 408.25 1)" stroke="white" stroke-width="3"/>
<line y1="-1.5" x2="45.8886" y2="-1.5" transform="matrix(0.855333 0.518079 -0.981491 0.191506 447.5 1)" stroke="white" stroke-width="3"/>
<line y1="-1.5" x2="45.8886" y2="-1.5" transform="matrix(0.855333 0.518079 -0.981491 0.191506 486.75 1)" stroke="white" stroke-width="3"/>
<line y1="-1.5" x2="45.8886" y2="-1.5" transform="matrix(0.855333 0.518079 -0.981491 0.191506 526 1.22607)" stroke="white" stroke-width="3"/>
<line y1="-1.5" x2="45.8886" y2="-1.5" transform="matrix(0.855333 0.518079 -0.981491 0.191506 565.25 1.22607)" stroke="white" stroke-width="3"/>
<line y1="-1.5" x2="45.8886" y2="-1.5" transform="matrix(0.855333 0.518079 -0.981491 0.191506 604.5 1.22607)" stroke="white" stroke-width="3"/>
<line y1="-1.5" x2="45.8886" y2="-1.5" transform="matrix(0.855333 0.518079 -0.981491 0.191506 643.75 1.22607)" stroke="white" stroke-width="3"/>
<line y1="-1.5" x2="45.8886" y2="-1.5" transform="matrix(0.855333 0.518079 -0.981491 0.191506 683 1)" stroke="white" stroke-width="3"/>
<line y1="-1.5" x2="45.8886" y2="-1.5" transform="matrix(0.855333 0.518079 -0.981491 0.191506 722.25 1)" stroke="white" stroke-width="3"/>
<line y1="-1.5" x2="45.8886" y2="-1.5" transform="matrix(0.855333 0.518079 -0.981491 0.191506 761.5 1)" stroke="white" stroke-width="3"/>
<line y1="-1.5" x2="45.8886" y2="-1.5" transform="matrix(0.855333 0.518079 -0.981491 0.191506 800.75 1)" stroke="white" stroke-width="3"/>
<line y1="-1.5" x2="45.8886" y2="-1.5" transform="matrix(0.855333 0.518079 -0.981491 0.191506 840 1.22607)" stroke="white" stroke-width="3"/>
<line y1="-1.5" x2="45.8886" y2="-1.5" transform="matrix(0.855333 0.518079 -0.981491 0.191506 879.25 1.22607)" stroke="white" stroke-width="3"/>
<line y1="-1.5" x2="45.8886" y2="-1.5" transform="matrix(0.855333 0.518079 -0.981491 0.191506 918.5 1.22607)" stroke="white" stroke-width="3"/>
<line y1="-1.5" x2="45.8886" y2="-1.5" transform="matrix(0.855333 0.518079 -0.981491 0.191506 957.75 1.22607)" stroke="white" stroke-width="3"/>
<line y1="-1.5" x2="45.8886" y2="-1.5" transform="matrix(0.855333 0.518079 -0.981491 0.191506 997 1)" stroke="white" stroke-width="3"/>
<line y1="-1.5" x2="45.8886" y2="-1.5" transform="matrix(0.855333 0.518079 -0.981491 0.191506 1036.25 1)" stroke="white" stroke-width="3"/>
<line y1="-1.5" x2="45.8886" y2="-1.5" transform="matrix(0.855333 0.518079 -0.981491 0.191506 1075.5 1)" stroke="white" stroke-width="3"/>
<line y1="-1.5" x2="45.8886" y2="-1.5" transform="matrix(0.855333 0.518079 -0.981491 0.191506 1114.75 1)" stroke="white" stroke-width="3"/>
<line y1="-1.5" x2="45.8886" y2="-1.5" transform="matrix(0.855333 0.518079 -0.981491 0.191506 1154 1.22607)" stroke="white" stroke-width="3"/>
<line y1="-1.5" x2="45.8886" y2="-1.5" transform="matrix(0.855333 0.518079 -0.981491 0.191506 1193.25 1.22607)" stroke="white" stroke-width="3"/>
<line y1="-1.5" x2="45.8886" y2="-1.5" transform="matrix(0.855333 0.518079 -0.981491 0.191506 1232.5 1.22607)" stroke="white" stroke-width="3"/>
<line y1="-1.5" x2="45.8886" y2="-1.5" transform="matrix(0.855333 0.518079 -0.981491 0.191506 1271.75 1.22607)" stroke="white" stroke-width="3"/>
<line y1="-1.5" x2="45.8886" y2="-1.5" transform="matrix(0.855333 0.518079 -0.981491 0.191506 1311 1)" stroke="white" stroke-width="3"/>
<line y1="-1.5" x2="45.8886" y2="-1.5" transform="matrix(0.855333 0.518079 -0.981491 0.191506 1350.25 1)" stroke="white" stroke-width="3"/>
</svg>
