<svg width="35" height="35" viewBox="0 0 35 35" fill="none" xmlns="http://www.w3.org/2000/svg">
<path d="M19.5273 12.71L19.9756 14.0918H27.9883L22.6816 17.9473L21.5059 18.8018L21.9551 20.1836L23.9814 26.4209L18.6758 22.5664L17.5 21.7119L16.3242 22.5664L11.0176 26.4209L13.0449 20.1836L13.4941 18.8018L12.3184 17.9473L7.01172 14.0918H15.0244L15.4727 12.71L17.5 6.47168L19.5273 12.71Z" stroke="#CA0F3E" stroke-width="4"/>
<path d="M20.9531 12.2471L21.0654 12.5918H32.6055L23.5635 19.1611L23.2695 19.375L23.3818 19.7197L26.834 30.3477L17.7939 23.7803L17.5 23.5664L17.2061 23.7803L8.16504 30.3477L11.6182 19.7197L11.7305 19.375L11.4365 19.1611L2.39453 12.5918H13.9346L14.0469 12.2471L17.5 1.61816L20.9531 12.2471Z" stroke="#171F29"/>
</svg>
