<svg width="1366" height="25" fill="none" xmlns="http://www.w3.org/2000/svg"><path transform="matrix(.85533 .51808 -.9815 .1915 -11 1.226)" stroke="#171F29" stroke-width="3" d="M0-1.5h45.889"/><path transform="matrix(.85533 .51808 -.9815 .1915 28.25 1.226)" stroke="#171F29" stroke-width="3" d="M0-1.5h45.889"/><path transform="matrix(.85533 .51808 -.9815 .1915 67.5 1.226)" stroke="#171F29" stroke-width="3" d="M0-1.5h45.889"/><path transform="matrix(.85533 .51808 -.9815 .1915 106.75 1.226)" stroke="#171F29" stroke-width="3" d="M0-1.5h45.889"/><path transform="matrix(.85533 .51808 -.9815 .1915 146 1)" stroke="#171F29" stroke-width="3" d="M0-1.5h45.889"/><path transform="matrix(.85533 .51808 -.9815 .1915 185.25 1)" stroke="#171F29" stroke-width="3" d="M0-1.5h45.889"/><path transform="matrix(.85533 .51808 -.9815 .1915 224.5 1)" stroke="#171F29" stroke-width="3" d="M0-1.5h45.889"/><path transform="matrix(.85533 .51808 -.9815 .1915 263.75 1)" stroke="#171F29" stroke-width="3" d="M0-1.5h45.889"/><path transform="matrix(.85533 .51808 -.9815 .1915 303 1.226)" stroke="#171F29" stroke-width="3" d="M0-1.5h45.889"/><path transform="matrix(.85533 .51808 -.9815 .1915 342.25 1.226)" stroke="#171F29" stroke-width="3" d="M0-1.5h45.889"/><path transform="matrix(.85533 .51808 -.9815 .1915 381.5 1.226)" stroke="#171F29" stroke-width="3" d="M0-1.5h45.889"/><path transform="matrix(.85533 .51808 -.9815 .1915 420.75 1.226)" stroke="#171F29" stroke-width="3" d="M0-1.5h45.889"/><path transform="matrix(.85533 .51808 -.9815 .1915 460 1)" stroke="#171F29" stroke-width="3" d="M0-1.5h45.889"/><path transform="matrix(.85533 .51808 -.9815 .1915 499.25 1)" stroke="#171F29" stroke-width="3" d="M0-1.5h45.889"/><path transform="matrix(.85533 .51808 -.9815 .1915 538.5 1)" stroke="#171F29" stroke-width="3" d="M0-1.5h45.889"/><path transform="matrix(.85533 .51808 -.9815 .1915 577.75 1)" stroke="#171F29" stroke-width="3" d="M0-1.5h45.889"/><path transform="matrix(.85533 .51808 -.9815 .1915 617 1.226)" stroke="#171F29" stroke-width="3" d="M0-1.5h45.889"/><path transform="matrix(.85533 .51808 -.9815 .1915 656.25 1.226)" stroke="#171F29" stroke-width="3" d="M0-1.5h45.889"/><path transform="matrix(.85533 .51808 -.9815 .1915 695.5 1.226)" stroke="#171F29" stroke-width="3" d="M0-1.5h45.889"/><path transform="matrix(.85533 .51808 -.9815 .1915 734.75 1.226)" stroke="#171F29" stroke-width="3" d="M0-1.5h45.889"/><path transform="matrix(.85533 .51808 -.9815 .1915 774 1)" stroke="#171F29" stroke-width="3" d="M0-1.5h45.889"/><path transform="matrix(.85533 .51808 -.9815 .1915 813.25 1)" stroke="#171F29" stroke-width="3" d="M0-1.5h45.889"/><path transform="matrix(.85533 .51808 -.9815 .1915 852.5 1)" stroke="#171F29" stroke-width="3" d="M0-1.5h45.889"/><path transform="matrix(.85533 .51808 -.9815 .1915 891.75 1)" stroke="#171F29" stroke-width="3" d="M0-1.5h45.889"/><path transform="matrix(.85533 .51808 -.9815 .1915 931 1.226)" stroke="#171F29" stroke-width="3" d="M0-1.5h45.889"/><path transform="matrix(.85533 .51808 -.9815 .1915 970.25 1.226)" stroke="#171F29" stroke-width="3" d="M0-1.5h45.889"/><path transform="matrix(.85533 .51808 -.9815 .1915 1009.5 1.226)" stroke="#171F29" stroke-width="3" d="M0-1.5h45.889"/><path transform="matrix(.85533 .51808 -.9815 .1915 1048.75 1.226)" stroke="#171F29" stroke-width="3" d="M0-1.5h45.889"/><path transform="matrix(.85533 .51808 -.9815 .1915 1088 1)" stroke="#171F29" stroke-width="3" d="M0-1.5h45.889"/><path transform="matrix(.85533 .51808 -.9815 .1915 1127.25 1)" stroke="#171F29" stroke-width="3" d="M0-1.5h45.889"/><path transform="matrix(.85533 .51808 -.9815 .1915 1166.5 1)" stroke="#171F29" stroke-width="3" d="M0-1.5h45.889"/><path transform="matrix(.85533 .51808 -.9815 .1915 1205.75 1)" stroke="#171F29" stroke-width="3" d="M0-1.5h45.889"/><path transform="matrix(.85533 .51808 -.9815 .1915 1245 1.226)" stroke="#171F29" stroke-width="3" d="M0-1.5h45.889"/><path transform="matrix(.85533 .51808 -.9815 .1915 1284.25 1.226)" stroke="#171F29" stroke-width="3" d="M0-1.5h45.889"/><path transform="matrix(.85533 .51808 -.9815 .1915 1323.5 1.226)" stroke="#171F29" stroke-width="3" d="M0-1.5h45.889"/><path transform="matrix(.85533 .51808 -.9815 .1915 1362.75 1.226)" stroke="#171F29" stroke-width="3" d="M0-1.5h45.889"/></svg>