<svg width="158" height="151" fill="none" xmlns="http://www.w3.org/2000/svg"><path d="M58.977 0c1.132.028 2.257.086 3.373.175v122.48c-1.116.089-2.24.147-3.373.175V0Zm-4 122.802a62.448 62.448 0 0 1-3.371-.226V.254a61.977 61.977 0 0 1 3.371-.226v122.774ZM66.35.623a61.24 61.24 0 0 1 3.372.586v120.412c-1.114.226-2.238.42-3.372.585V.623ZM47.606 122.066a61.384 61.384 0 0 1-3.373-.638V1.402a61.161 61.161 0 0 1 3.373-.638v121.302ZM73.721 2.163c1.138.312 2.262.656 3.373 1.03v116.444a60.86 60.86 0 0 1-3.373 1.03V2.163ZM40.233 120.408a60.152 60.152 0 0 1-3.372-1.089V3.511a60.959 60.959 0 0 1 3.372-1.09v117.987ZM81.095 4.703a61.14 61.14 0 0 1 3.372 1.53v110.365a61.642 61.642 0 0 1-3.372 1.529V4.703ZM32.86 117.737a61.3 61.3 0 0 1-3.372-1.596V6.689a61.153 61.153 0 0 1 3.372-1.597v112.645ZM88.467 8.383a61.453 61.453 0 0 1 3.372 2.127v101.81a61.395 61.395 0 0 1-3.372 2.126V8.383ZM25.489 113.9a61.373 61.373 0 0 1-3.373-2.212V11.143A61.474 61.474 0 0 1 25.49 8.93V113.9ZM95.84 13.46c1.16.93 2.284 1.901 3.372 2.911v90.088a61.378 61.378 0 0 1-3.372 2.91V13.461Zm-77.723 95.16a61.709 61.709 0 0 1-3.372-3.028V17.238a61.797 61.797 0 0 1 3.372-3.028v94.41Zm85.095-88.178a61.75 61.75 0 0 1 3.372 4.107V98.28a61.783 61.783 0 0 1-3.372 4.107V20.442Zm-92.467 80.9a61.765 61.765 0 0 1-3.37-4.31V25.798a61.718 61.718 0 0 1 3.37-4.31v79.854Zm99.839-70.76a61.201 61.201 0 0 1 3.372 6.717V85.53a61.183 61.183 0 0 1-3.372 6.717V30.582ZM3.373 90.62A61.123 61.123 0 0 1 0 83.265v-43.7a61.122 61.122 0 0 1 3.373-7.355v58.41ZM117.955 50.8c.601 3.448.915 6.995.915 10.615s-.314 7.167-.915 10.614V50.8Z" fill="#CA0F3E"/><circle cx="99.5" cy="92.5" r="57.5" stroke="#A00F33" stroke-width="2"/></svg>