<svg width="32" height="12" fill="none" xmlns="http://www.w3.org/2000/svg"><g clip-path="url(#a)" fill="#000"><path d="M16.995 0 15.07 4.231 13.146 0h-1.433v9.597h1.433V3.453L14.593 6.6h.916l1.447-3.148v6.144h1.433V0h-1.394Zm7.218 0L21.36 6.11V0h-1.485v9.597h1.356l2.854-6.11v6.11h1.485V0h-1.356Zm2.196 0v1.693h2.066V9.58h1.485V1.693h2.053V0H26.41ZM5.488 0v1.693h3.28v2.284H5.966v1.608h2.802v2.573l-3.28 1.557V12l4.765-2.403V0H5.488ZM0 0v9.597L4.752 12V0H0Z"/></g><defs><clipPath id="a"><path fill="#fff" d="M0 0h32v12H0z"/></clipPath></defs></svg>