<svg width="1366" height="918" fill="none" xmlns="http://www.w3.org/2000/svg"><path d="M783 686c47.435 140.67-202.5 335-216.5 133S376.5 630.5 263 707c-90.8 61.2-177.352-75-213-152C12.5 474-52.2 347.1-97 439.5M783 686c-43.5-129 17.5 88.5 0 0Zm0 0c-17.5-88.5 35-268.5 197-251s207.5-68.5 165.5-99.5-180 35-185-40 18-225 176.5-179.5 156 0 179.5-43.5c13.5-27.333 59-79.2 133-68" stroke="#000" stroke-width="4"/><circle cx="12" cy="12" r="12" transform="matrix(-1 0 0 1 196.5 706)" fill="#A00F33"/><circle cx="12" cy="12" r="12" transform="matrix(-1 0 0 1 643.5 894)" fill="#A00F33"/><circle cx="12" cy="12" r="12" transform="matrix(-1 0 0 1 945.5 423)" fill="#A00F33"/><circle cx="12" cy="12" r="12" transform="matrix(-1 0 0 1 38 492)" fill="#A00F33"/><circle cx="12" cy="12" r="12" transform="matrix(-1 0 0 1 1160.5 326)" fill="#A00F33"/><circle cx="12" cy="12" r="12" transform="matrix(-1 0 0 1 1084.5 94)" fill="#A00F33"/><circle cx="12" cy="12" r="12" transform="matrix(-1 0 0 1 1330 57)" fill="#A00F33"/><path d="M1093.81 712.692c30.76 0 55.69 24.935 55.69 55.693s-24.93 55.692-55.69 55.692c-30.76 0-55.69-24.934-55.69-55.692s24.93-55.693 55.69-55.693Z" stroke="#000" stroke-width="4"/><circle cx="1023.04" cy="768.384" r="64.615" fill="#A00F33"/><path d="M993.038 685c38.402 0 69.542 31.133 69.542 69.538s-31.14 69.539-69.542 69.539c-38.405 0-69.538-31.134-69.538-69.539S954.633 685 993.038 685Z" stroke="#000" stroke-width="4"/><path d="M1069.96 718c-3.46 1.282-10.69 5.231-11.92 10.769M1066.5 817c-3.4-1.887-15.91-14.264-17-20" stroke="#000" stroke-width="4"/><circle cx="237.615" cy="246.615" r="64.615" fill="#A00F33"/><circle cx="181.358" cy="247.358" r="2.358" fill="#171F29"/><circle cx="206.119" cy="247.358" r="2.358" fill="#171F29"/><circle cx="230.881" cy="247.358" r="2.358" fill="#171F29"/><circle cx="255.641" cy="247.358" r="2.358" fill="#171F29"/><circle cx="280.358" cy="247.358" r="2.358" fill="#171F29"/><circle cx="305.119" cy="247.358" r="2.358" fill="#171F29"/><circle cx="329.881" cy="247.358" r="2.358" fill="#171F29"/><circle cx="354.641" cy="247.358" r="2.358" fill="#171F29"/><circle cx="92.358" cy="231.358" r="2.358" fill="#fff"/><circle cx="117.119" cy="231.358" r="2.358" fill="#fff"/><circle cx="141.881" cy="231.358" r="2.358" fill="#fff"/><circle cx="166.641" cy="231.358" r="2.358" fill="#fff"/><circle cx="191.358" cy="231.358" r="2.358" fill="#fff"/><circle cx="216.119" cy="231.358" r="2.358" fill="#fff"/><circle cx="240.881" cy="231.358" r="2.358" fill="#fff"/><circle cx="265.641" cy="231.358" r="2.358" fill="#fff"/></svg>