<svg width="1366" height="903" fill="none" xmlns="http://www.w3.org/2000/svg"><path d="M819 670.5c47.435 140.67-202.5 335-216.5 133S412.5 615 299 691.5c-90.8 61.2-179.833-75.833-213-152-55.333-130.5-109-137.6-143 0m876 131c-43.5-129 17.5 88.5 0 0Zm0 0c-17.5-88.5 35-268.5 197-251s207.5-68.5 165.5-99.5-180 35-185-40 18-225 176.5-179.5 188.5-60 216.5-98.5" stroke="#fff" stroke-opacity=".85" stroke-width="4"/><circle cx="12" cy="12" r="12" transform="matrix(-1 0 0 1 232.5 690.5)" fill="#A00F33"/><circle cx="12" cy="12" r="12" transform="matrix(-1 0 0 1 679.5 878.5)" fill="#A00F33"/><circle cx="12" cy="12" r="12" transform="matrix(-1 0 0 1 981.5 407.5)" fill="#A00F33"/><circle cx="12" cy="12" r="12" transform="matrix(-1 0 0 1 1196.5 310.5)" fill="#A00F33"/><circle cx="12" cy="12" r="12" transform="matrix(-1 0 0 1 1120.5 78.5)" fill="#A00F33"/><path d="M1129.81 697.192c30.76 0 55.69 24.935 55.69 55.693s-24.93 55.692-55.69 55.692c-30.76 0-55.69-24.934-55.69-55.692s24.93-55.693 55.69-55.693Z" stroke="#fff" stroke-width="4"/><circle cx="1059.04" cy="752.884" r="64.615" fill="#A00F33"/><path d="M1029.04 669.5c38.4 0 69.54 31.133 69.54 69.538s-31.14 69.539-69.54 69.539c-38.407 0-69.54-31.134-69.54-69.539s31.133-69.538 69.54-69.538Z" stroke="#fff" stroke-width="4"/><path d="M1104.92 703c-3.42 2-10.19 4.462-11.42 10m10 89c-4.5-2-18.23-14.039-19.46-19.885" stroke="#fff" stroke-width="4"/><circle cx="249.615" cy="224.615" r="64.615" fill="#A00F33"/><circle cx="218.358" cy="227.358" r="2.358" fill="#fff"/><circle cx="243.119" cy="227.358" r="2.358" fill="#fff"/><circle cx="267.881" cy="227.358" r="2.358" fill="#fff"/><circle cx="292.641" cy="227.358" r="2.358" fill="#fff"/><circle cx="317.358" cy="227.358" r="2.358" fill="#fff"/><circle cx="342.119" cy="227.358" r="2.358" fill="#fff"/><circle cx="366.881" cy="227.358" r="2.358" fill="#fff"/><circle cx="391.641" cy="227.358" r="2.358" fill="#fff"/><circle cx="168.358" cy="207.358" r="2.358" fill="#fff"/><circle cx="193.119" cy="207.358" r="2.358" fill="#fff"/><circle cx="217.881" cy="207.358" r="2.358" fill="#fff"/><circle cx="242.641" cy="207.358" r="2.358" fill="#fff"/><circle cx="267.358" cy="207.358" r="2.358" fill="#fff"/><circle cx="292.119" cy="207.358" r="2.358" fill="#fff"/><circle cx="316.881" cy="207.358" r="2.358" fill="#fff"/><circle cx="341.641" cy="207.358" r="2.358" fill="#fff"/></svg>